<svg aria-hidden="true" class="XZO-K" data-component="ABCNewsLogo" height="44" preserveAspectRatio="xMinYMid meet" viewBox="0 0 123 44" width="123" xmlns="http://www.w3.org/2000/svg"><path d="M113.367 10c4.455 0 7.635 2 7.635 2l-1.586 3.241s-2.911-1.662-5.984-1.662c-2.361 0-3.913.706-3.913 2.63 0 4.524 12.624 2.465 12.624 10.466-.034 4.86-3.747 7.325-8.675 7.325-5.74 0-9.081-2.906-9.081-2.906l2.091-3.171s2.939 2.499 6.787 2.499c2.869 0 4.59-1.251 4.59-3.274 0-4.694-12.559-3.004-12.559-10.735 0-4.321 3.343-6.413 8.07-6.413zM9.283 11.648c.407.413 1.213 2.345 1.286 2.52l.005.012 4.95 13.215c.285.753.883 1.167 1.486 1.22a1.588 1.588 0 001.518-.96l.059-.15 1.565-4.156 2.63 6.904c-1.293 2.321-2.53 2.917-3.98 3.453a6.534 6.534 0 01-1.742.291c-.133.004-.35.003-.483 0-1.077-.038-2.138-.322-2.99-.827-.467-.314-1.674-1.118-2.528-3.037l-.109-.256-5.218-14.564V28.58l.079-.223 1.911-5.384 2.475 7.012c-.372 1.618-1.506 2.967-2.848 3.615-.43.199-.783.315-1.21.364l-.22.02-.133.004a4.969 4.969 0 01-3.016-.818c-1.28-.93-1.686-2.058-1.762-3.95L1 28.957V14.563c.163-2.377 1.667-3.67 3.015-4.264.64-.216.911-.269 1.611-.269 1.182-.054 2.634.43 3.657 1.618zM17.14 10c1.175-.014 2.347.253 3.278.84.465.307 1.667 1.065 2.522 2.98l.11.257 5.16 14.613V15.368l-.122.36-1.81 5.253-2.47-7.012c.32-1.566 1.505-2.914 2.849-3.563.322-.15.72-.26 1.092-.327l.272-.043c.033-.008.068-.01.101-.012l.014-.002.014-.002c1.075-.083 2.162.215 3.078.766 1.289.98 1.687 2.058 1.764 3.99l.008.27v14.346c-.159 2.425-1.717 3.72-3.065 4.314-.588.215-.861.269-1.557.269-1.182 0-2.688-.432-3.657-1.673-.414-.408-1.213-2.346-1.285-2.522l-.005-.012-4.95-13.16a2.036 2.036 0 00-1.608-1.222c-.572-.015-1.133.295-1.443.955l-.067.159-1.508 4.157L11.22 13.7c1.291-2.323 2.526-2.859 3.977-3.4.409-.129.95-.217 1.444-.264l.289-.024.052-.005h.051L17.14 10zm55.654.285l-.5 3.463H62.74v6.026h9.222v3.563H62.74v6.693h10.122v3.563h-14.25V10.285h14.183zm-30.004-.032l9.356 16.948V10.253h4.162v23.308h-5.095l-9.156-16.415V33.56h-4.162V10.253h4.895zm35.888 0l4.263 18.48h.133l4.328-18.48h3.996l4.494 18.48h.134l4.096-18.48h4.429l-5.928 23.308h-4.928l-4.262-16.249-4.228 16.249h-4.962l-5.96-23.308h4.395z" fill="currentColor" style="--darkreader-inline-fill: currentColor;" data-darkreader-inline-fill=""></path></svg>
