<svg xmlns="http://www.w3.org/2000/svg" width="230" height="100"><path fill="#DBA200" d="M123.52 86.8c-.14.07-.2.32-.1.67.1.34.65 1.8.65 1.8.38 1.1 1.04 2.38 1.91 3.03.94.7 1.43.45 1.62.37.13-.08.74-.46.52-1.46a6.36 6.36 0 00-.54-1.74c-.18-.38-.43-.63-.58-.56-.09.02-.02.37-.02.58 0 .39-.13.68-.44.82-.28.13-.95.38-1.47-.58-.42-.78-.8-1.8-.96-2.22-.13-.32-.32-.72-.52-.72l-.07.01zm-14.76 2.85l3.14 2.72 3.05-3.86-3.14-2.72-3.05 3.86zm.7-6.74l3.13 2.71 3.06-3.84-3.14-2.73-3.04 3.86zm20.03-9.5l3.68 1.83 2.03-4.54-3.67-1.82-2.04 4.52zm-19.07-3.19a26.32 26.32 0 006.63 9.56c.29-2 .6-3.4.88-4.4a21.83 21.83 0 01-6.02-6.56l-1.49 1.4zm7-4.86l3.68 1.82 2.03-4.53-3.68-1.82-2.04 4.53zM99.63 47.3s-2.3 1.7-3.23 3.97a5.18 5.18 0 00-.2 3.6c.32.72 1.09 1.41 2.08.58.7-.58 1-1.4 1.16-2.1.1-.4.12-.67.12-.87 0-.25-.08-.47-.3-.41-.67.23-.28 1.17-.75 1.62-.36.23-1.3.1-1.48-.86-.19-.97.52-2.21 1.17-3.04.64-.82 1.78-1.9 1.78-1.9s.8-.7.53-1.05c0-.02-.04-.03-.07-.03-.24 0-.81.49-.81.49zm22.62-2.51l-2.84 3.25-2.43 2.79c-.54.63-.82 1.24-.75 1.57l.32 1.68c.09-.31.43-.88.81-1.32l2.84-3.25c1.12-1.3 2.2-2.51 2.43-2.8.55-.6.83-1.23.75-1.55l-.33-1.7c-.08.32-.42.89-.8 1.33zM91.6 69.24a6.13 6.13 0 012.68-3.67c2.32-1.13 3.23 1.78 3.23 1.78a3.1 3.1 0 01-3.18 3c-.93 0-1.92-.37-2.73-1.1zM108.89 22a2.94 2.94 0 00-2.78 3.08 2.93 2.93 0 002.94 2.92c.87-.03 1.61-.46 2.13-1.1l.06-.07c.33 2.4-.76 4.3-3.3 6.51-2.6 2.3-8.68 5.29-13 8.87-6.09 5.04-7.53 10.53-7.9 14.97-.15 1.99.12 4.6.64 6.75a29.64 29.64 0 001.7 5.02c-.15 2.94.13 8.08 1.72 11.96 2.12 5 5.94 9.1 11.43 7.89 5.53-1.36 6.15-10.78 6.78-17.66.16-1.13.33-1.33.66-1.62.89-.79 3.05-2.91 4.07-3.85a6.44 6.44 0 001.55-1.93c.46-.9.22-2.12.22-2.12l-.62-4.53c-.16.64-.91 1.54-1.97 2.66-1.1 1.16-4.04 3.8-4.3 4.1-.27.27-1.23 1-1.64 4.46-1.06 9.41-2.83 13.85-6 15.35-.84.42-1.78.6-2.83.64-5.82-.06-7.35-7.5-7.33-11.56l.02-.71c1.36 1.9 3.35 3.8 5.82 3.4 3.93-.62 2.7-7.57 2.14-9.18-.56-1.62-2.09-6.45-5.38-6.21-2.34.16-3.42 3.03-3.92 5.46-.45-1.92-.7-4.17-.55-5.93.35-4.2 1.73-9.45 7.57-14.62 4.16-3.67 8.87-6.3 11.5-8.47a11 11 0 003.28-4.36c-.16 1.4-.5 2.92-1.14 4.7-2.42 6.66-9.76 17.67-9.86 33.24a62 62 0 001.16 12.45c.4-.28.77-.66 1.12-1.1-.5-2.53-.8-5.33-.8-8.32 0-15.53 7.29-26.53 9.67-33.18a23.07 23.07 0 001.28-8.59c0-3.1-.66-6.32-1.28-7.58-.66-1.2-1.49-1.74-2.73-1.74h-.13zM116.05.7c-1.47 1.08-2.69 3.52-2.68 7.24a17 17 0 002.3 8.1c-2.25 3.23-2.67 6.2-1.7 9.05.72 2.17 1.1 2.73 1.42 4.02.84 3.3-.09 7.25-2.57 13.34-2 4.97-4.62 10.17-4.62 16.5 0 1.44.13 2.86.32 4.24.23-.24.73-.73 1.34-1.3-.3-4.97 1.59-9.95 3.9-14.43 3.38-6.54 3.8-13.2 3.14-16.84 2.37 2.65 6.36 6.6 8.69 10.67a9.66 9.66 0 011.37 3.97c.11 3.21-.85 5.51-2.73 7.77-1.6 1.9-1.04 3.58-.97 3.91.12.54.77 2.62 1.22 3.97 1.77-3.61 6.64-5.65 8.85-8.65.5 3.7-2.16 7.22-4.13 9.58a41.3 41.3 0 01-1.57 1.66c-3.74 3.74-6.2 6.31-7.5 8.7-.33.53-.87 1.72-1.14 2.63a33.3 33.3 0 00-1.27 6.5c-.31 2.02-.66 4.43-.78 5.5-.25 2.44-.95 6.32-3.82 7.42-.16.07-.3.1-.47.14v.01c-2.73.63-5.53-1.77-7.57-6.07-.41.33-.87.63-1.37.86 2.76 6.81 6.9 9.94 10.54 9.94 2.75 0 4.92-1.45 5.62-5.68.36-2.13.61-4.5.84-6.8.11-1.1.63-7.33 1.6-9.6 1.18-2.53 3.77-4.98 7.64-9.15 2.39-2.58 3.69-4.74 4.37-6.47 2.25-4.31-.54-14.56-1.08-16.4-.02-.07-.02-.08-.06-.08-.06 0-.07.01-.11.09 0 .02-.02.03-.03.04-1 1.7-2.77 3.24-4.42 4.51.93-2.67.68-4.7.3-6.4v-.02l-.06-.3v.02c-1.68-6.8-8.33-12.86-11.33-16.35-3.9-4.52-2.57-7.43-1.14-9.28.27.41.55.86.87 1.3 5.3 7.51 15.29 19.44 20.52 30.8a39.22 39.22 0 012.9 8.38c2.07 11.76-5.79 23.73-17.56 20.36a2.33 2.33 0 01-.23-.07 34.07 34.07 0 00-.92 5c1.78.79 3.72 1.27 5.6 1.35l.4.02c9.68.1 17.26-7.47 15.86-23.36 0 0-.58-6.61-3.85-13.58-5.23-12.23-14.92-24.34-20.86-32.16-1.89-2.48-3-4.63-3.55-6.49-1.12-3.61-.4-6.41 1.02-7.64.3-.27.69-.57 1.04-.75.21-.12.13-.38-.02-.41l-.13-.01c-.2 0-.61.1-1.43.7zm-10.88 26.45a2.94 2.94 0 00-2.77 3.1 2.92 2.92 0 002.94 2.9 2.94 2.94 0 002.78-3.08 2.93 2.93 0 00-2.85-2.92h-.1z" fill-rule="evenodd"/></svg>