<?xml version="1.0" encoding="UTF-8" standalone="no"?>
<!-- Created with Inkscape (http://www.inkscape.org/) -->

<svg
   xmlns:dc="http://purl.org/dc/elements/1.1/"
   xmlns:cc="http://creativecommons.org/ns#"
   xmlns:rdf="http://www.w3.org/1999/02/22-rdf-syntax-ns#"
   xmlns:svg="http://www.w3.org/2000/svg"
   xmlns="http://www.w3.org/2000/svg"
   xmlns:sodipodi="http://sodipodi.sourceforge.net/DTD/sodipodi-0.dtd"
   xmlns:inkscape="http://www.inkscape.org/namespaces/inkscape"
   width="360"
   height="100.01606"
   id="svg5823"
   version="1.1"
   inkscape:version="0.48.0 r9654"
   sodipodi:docname="Nouveau document 2">
  <defs
     id="defs5825">
    <clipPath
       clipPathUnits="userSpaceOnUse"
       id="clipPath10282">
      <path
         inkscape:connector-curvature="0"
         d="m 495.288,628.452 30.303,0 0,11.241 -30.303,0 0,-11.241 z"
         clip-rule="evenodd"
         id="path10284" />
    </clipPath>
    <clipPath
       clipPathUnits="userSpaceOnUse"
       id="clipPath10290">
      <path
         inkscape:connector-curvature="0"
         d="m 496.568,637.945 0,-7.249 28.186,0 0,7.249"
         id="path10292" />
    </clipPath>
    <clipPath
       clipPathUnits="userSpaceOnUse"
       id="clipPath10306">
      <path
         inkscape:connector-curvature="0"
         d="m 496.568,637.945 0,-7.249 28.186,0 0,7.249"
         id="path10308" />
    </clipPath>
  </defs>
  <sodipodi:namedview
     id="base"
     pagecolor="#ffffff"
     bordercolor="#666666"
     borderopacity="1.0"
     inkscape:pageopacity="0.0"
     inkscape:pageshadow="2"
     inkscape:zoom="3.959798"
     inkscape:cx="199.41397"
     inkscape:cy="26.339604"
     inkscape:document-units="px"
     inkscape:current-layer="layer1"
     showgrid="false"
     fit-margin-top="5"
     fit-margin-left="5"
     fit-margin-right="5"
     fit-margin-bottom="5"
     inkscape:window-width="1920"
     inkscape:window-height="1018"
     inkscape:window-x="-8"
     inkscape:window-y="-8"
     inkscape:window-maximized="1" />
  <metadata
     id="metadata5828">
    <rdf:RDF>
      <cc:Work
         rdf:about="">
        <dc:format>image/svg+xml</dc:format>
        <dc:type
           rdf:resource="http://purl.org/dc/dcmitype/StillImage" />
        <dc:title></dc:title>
      </cc:Work>
    </rdf:RDF>
  </metadata>
  <g
     inkscape:label="Calque 1"
     inkscape:groupmode="layer"
     id="layer1"
     transform="translate(-56.291484,-469.94968)">
    <g
       clip-path="url(#clipPath10282)"
       id="g10280"
       transform="matrix(12.417721,0,0,-12.417721,-6104.9554,8396.7727)"
       style="fill:#eb1d2c;fill-opacity:1">
      <g
         id="g10286"
         style="fill:#eb1d2c;fill-opacity:1">
        <g
           clip-path="url(#clipPath10290)"
           id="g10288"
           style="fill:#eb1d2c;fill-opacity:1">
          <path
             inkscape:connector-curvature="0"
             id="path10294"
             style="fill:#eb1d2c;fill-opacity:1;fill-rule:nonzero;stroke:none"
             d="m 499.844,632.657 1.083,0.008 0.512,1.899 c 0,0 0.439,1.529 -0.847,1.97 0,0 -0.884,0.302 -1.948,-0.073 0,0 -1.197,-0.5 -1.764,-1.544 0,0 -0.515,-0.808 -0.221,-1.506 0,0 0.368,-0.92 1.397,-0.736 0,0 0.919,-0.036 1.837,1.103 l -0.771,0.698 c 0,0 -0.578,-0.562 -0.946,-0.673 -0.198,-0.068 -0.334,-0.135 -0.49,-0.094 -0.137,0.037 -0.302,0.261 -0.255,0.583 0.061,0.415 0.453,1.304 1.617,1.728 0,0 1.081,0.26 1.317,-0.393 0,0 0.125,-0.385 0.021,-0.907 -0.081,-0.402 -0.542,-2.063 -0.542,-2.063" />
        </g>
      </g>
      <path
         inkscape:connector-curvature="0"
         id="path10296"
         style="fill:#eb1d2c;fill-opacity:1;fill-rule:nonzero;stroke:none"
         d="m 513.851,632.656 0.981,0.008 0.463,1.719 c 0,0 0.398,1.385 -0.767,1.784 0,0 -0.799,0.273 -1.763,-0.067 0,0 -1.084,-0.452 -1.597,-1.397 0,0 -0.466,-0.732 -0.2,-1.364 0,0 0.333,-0.832 1.264,-0.666 0,0 0.832,-0.033 1.664,0.999 l -0.698,0.632 c 0,0 -0.524,-0.51 -0.857,-0.61 -0.179,-0.062 -0.302,-0.122 -0.443,-0.085 -0.124,0.033 -0.274,0.236 -0.231,0.528 0.054,0.376 0.41,1.18 1.464,1.564 0,0 0.979,0.235 1.192,-0.355 0,0 0.113,-0.349 0.019,-0.821 -0.073,-0.365 -0.491,-1.869 -0.491,-1.869" />
      <path
         inkscape:connector-curvature="0"
         id="path10298"
         style="fill:#eb1d2c;fill-opacity:1;fill-rule:nonzero;stroke:none"
         d="m 501.802,632.64 0.989,0.009 0.712,2.654 c 0,0 0.077,0.413 0.524,0.413 0.447,0 1.464,0.012 1.464,0.012 l 0.514,0.506 -2.269,-0.008 c 0.115,0.003 -0.827,0.059 -1.232,-0.911 l -0.702,-2.675" />
      <path
         inkscape:connector-curvature="0"
         id="path10300"
         style="fill:#eb1d2c;fill-opacity:1;fill-rule:nonzero;stroke:none"
         d="m 507.393,632.64 0.99,0.009 0.711,2.654 c 0,0 0.078,0.413 0.525,0.413 0.447,0 1.463,0.012 1.463,0.012 l 0.514,0.506 -2.269,-0.008 c 0.116,0.003 -0.826,0.059 -1.231,-0.911 l -0.703,-2.675" />
      <g
         id="g10302"
         style="fill:#eb1d2c;fill-opacity:1">
        <g
           clip-path="url(#clipPath10306)"
           id="g10304"
           style="fill:#eb1d2c;fill-opacity:1">
          <path
             inkscape:connector-curvature="0"
             id="path10310"
             style="fill:#eb1d2c;fill-opacity:1;fill-rule:nonzero;stroke:none"
             d="m 506.402,636.251 -0.97,-3.61 0.986,0.008 0.97,3.594 -0.986,0.008 z" />
          <path
             inkscape:connector-curvature="0"
             id="path10312"
             style="fill:#eb1d2c;fill-opacity:1;fill-rule:nonzero;stroke:none"
             d="m 507.607,637.111 c -0.234,-0.287 -0.607,-0.39 -0.832,-0.244 -0.216,0.14 -0.223,0.466 -0.016,0.741 0.212,0.282 0.579,0.417 0.823,0.289 0.253,-0.133 0.265,-0.491 0.025,-0.786" />
          <path
             inkscape:connector-curvature="0"
             id="path10314"
             style="fill:#eb1d2c;fill-opacity:1;fill-rule:nonzero;stroke:none"
             d="m 515.666,632.669 1.007,0 0.797,3.036 1.217,0.014 c 0,0 0.517,0.055 0.392,-0.476 l -0.686,-2.587 0.993,0 0.699,2.573 c 0,0 0.224,0.965 -0.755,0.993 l -2.685,0.014 -0.979,-3.567" />
          <path
             inkscape:connector-curvature="0"
             id="path10316"
             style="fill:#eb1d2c;fill-opacity:1;fill-rule:nonzero;stroke:none"
             d="m 523.246,633.746 c 0,0 -0.629,-0.587 -1.44,-0.377 0,0 -0.686,0.182 -0.49,0.965 0,0 0.154,0.503 0.462,0.825 0,0 0.405,0.546 1.119,0.644 0.697,0.095 0.88,-0.322 0.894,-0.546 0.014,-0.224 0.112,-0.783 -0.545,-1.511 m 1.049,2.28 c 0,0 -0.531,0.462 -1.748,0.154 0,0 -0.881,-0.182 -1.679,-1.273 0,0 -0.503,-0.685 -0.335,-1.51 0,0 0.294,-0.923 1.203,-0.825 0,0 0.769,-0.112 1.608,0.615 0,0 -0.209,-0.937 -0.475,-1.273 0,0 -0.294,-0.531 -0.924,-0.671 0,0 -0.573,-0.055 -0.643,-0.042 l -0.126,-0.503 c 0,0 0.965,-0.029 1.357,0.125 0.391,0.154 0.951,0.476 1.273,0.98 0.321,0.503 0.262,0.467 0.349,0.685 0.14,0.349 0.574,2.182 0.574,2.182 0,0 0.181,0.951 -0.434,1.356" />
        </g>
      </g>
    </g>
  </g>
</svg>
