<svg width="110" height="24" xmlns="http://www.w3.org/2000/svg" viewBox="0 0 671.34 79.69"><path d="M62.45,57.51c-5.54,7.93-14.45,12.66-23.89,12.66-13.74,0-25.85-10.07-28.78-23.94l-.11-.5H76.83c.4-2.73,.29-5.7,.29-5.7h0c0-.08,0-.17,0-.26C77.12,17.86,59.82,.03,38.56,.03S0,17.86,0,39.78s17.3,39.76,38.56,39.76c14.48,0,27.62-8.26,34.29-21.55l.95-1.94h-10.39c-.36,.59-.71,1.11-.96,1.47ZM9.33,35.91c1.89-15.12,14.46-26.52,29.23-26.52s27.34,11.4,29.23,26.52l.06,.46H9.27l.06-.46Z" fill="#0172f0" style="--darkreader-inline-fill: #0c5bb4;" data-darkreader-inline-fill=""></path><path d="M120.37,79.56c-4.28,0-8.37-.77-12.17-2.28-3.77-1.5-7.1-3.68-9.9-6.47-2.86-2.84-5.09-6.22-6.62-10.04-1.59-3.99-2.23-8.34-2.21-12.94V1.57s8.92,0,8.92,0V47.07c-.01,3.56,.42,6.89,1.59,9.9,1.11,2.86,2.72,5.4,4.78,7.53,2.01,2.07,4.37,3.69,7.03,4.8,2.7,1.12,5.58,1.7,8.55,1.7,3.04,0,5.93-.58,8.63-1.7,2.67-1.12,5.05-2.74,7.06-4.81,2.07-2.12,3.69-4.65,4.82-7.53,1.19-3.03,1.92-6.35,1.93-9.89V1.57h8.9V47.83c-.02,4.61-.95,8.96-2.56,12.92-1.56,3.82-3.8,7.2-6.66,10.04-2.83,2.8-6.17,4.98-9.92,6.48-3.79,1.52-7.89,2.29-12.17,2.29h0Z" fill="#0172f0" style="--darkreader-inline-fill: #0c5bb4;" data-darkreader-inline-fill=""></path><path d="M164.44,77.49V33.7c0-3.26,.39-6.44,1.15-9.47,1.04-4.2,2.78-7.95,5.15-11.14,2.95-3.97,6.89-7.08,11.72-9.26C188.04,1.32,194.89,.05,202.81,.05h1.5V9.57s-1.46,0-1.46,0c-5.77,0-10.73,.76-14.75,2.25-3.54,1.31-6.45,3.22-8.65,5.67-1.92,2.14-3.34,4.73-4.24,7.7-.77,2.55-1.16,5.41-1.17,8.52v43.78s-9.6,0-9.6,0Z" fill="#0172f0" style="--darkreader-inline-fill: #0c5bb4;" data-darkreader-inline-fill=""></path><path d="M347.7,77.49V37.49c.01-3.1-.32-5.98-1.31-8.55-.92-2.4-2.26-4.5-3.96-6.27-1.64-1.7-3.57-3.02-5.73-3.92-2.22-.93-4.6-1.4-7.06-1.4-2.51,0-4.9,.48-7.13,1.41-2.18,.92-4.12,2.24-5.77,3.95-1.71,1.76-3.05,3.87-4,6.28-1.02,2.6-1.67,5.47-1.68,8.54v39.97h-17.66V36.72c.02-5.27,1.09-10.25,2.93-14.81,1.81-4.45,4.41-8.39,7.74-11.7,3.3-3.27,7.18-5.81,11.53-7.56,4.38-1.75,9.08-2.64,13.99-2.65,4.92,0,9.62,.89,14,2.64,4.38,1.75,8.26,4.3,11.53,7.57,3.33,3.32,5.92,7.26,7.7,11.71,1.82,4.6,2.56,9.59,2.54,14.84v40.74s-17.67,0-17.67,0Z" fill="#0172f0" style="--darkreader-inline-fill: #0c5bb4;" data-darkreader-inline-fill=""></path><path d="M412.55,79.51c-21.26,0-38.55-17.83-38.55-39.75S391.29,0,412.55,0s38.55,17.84,38.55,39.76c0,2.03-.15,4.06-.45,6.07l-.09,.6h-60.2l.26,.82c3.12,9.76,11.94,16.32,21.94,16.32,5.43,0,10.55-1.92,14.76-5.55,0,0,1.13-.97,1.27-1.1h18.77l-.53,1.05c-6.66,13.28-19.79,21.54-34.26,21.54Zm0-63.57c-10,0-18.82,6.56-21.94,16.33l-.26,.81h44.38l-.26-.81c-3.12-9.77-11.93-16.33-21.93-16.33Z" fill="#0172f0" style="--darkreader-inline-fill: #0c5bb4;" data-darkreader-inline-fill=""></path><path d="M457.11,2.02v-.45s19.12,0,19.12,0c2.34,18.31,8.34,47.34,13.53,60.46,5.49-13.12,11.9-42.16,14.24-60.46h15.86c2.44,18.31,8.75,46.12,14.34,60.46,5.19-14.34,11.09-42.16,13.53-60.46h19.02v.45c-4.37,28.58-12.71,57.97-19.83,75.47h-23.8c-3.97-9.56-8.75-24.21-11.19-37.33-2.34,13.12-7.53,28.58-11.09,37.33h-23.8c-8.35-19.12-17.41-51.19-19.93-75.47Z" fill="#0172f0" style="--darkreader-inline-fill: #0c5bb4;" data-darkreader-inline-fill=""></path><path d="M574.61,74.16v-14.5h.8c4.3,1.3,13.6,3.1,20.3,3.1h3.9c6.2,0,10.9-1.9,10.9-8.2,0-4.7-4.1-6.6-8.6-7.8l-11.7-3.1c-8.6-2.2-15.6-8.2-15.6-21.1,0-15.2,12.5-21.5,27.7-21.5h3.9c4.7,0,14.1,1.2,18.4,2.8v14.4h-.8c-3.9-1.1-13.3-2.3-17.6-2.3h-3.5c-5.5,0-10.2,1.1-10.2,6.6,0,4.3,3.2,6,7.1,7l11.7,3.2c11.29,3,17.19,9.7,17.19,21.8,0,16.8-12.1,23.1-28.89,23.1h-3.9c-5.9,0-15.7-1.6-21.1-3.5Z" fill="#0172f0" style="--darkreader-inline-fill: #4aa6f2;" data-darkreader-inline-fill=""></path><circle cx="655.31" cy="61.65" r="16.02" fill="#0172f0" style="--darkreader-inline-fill: #4aa6f2;" data-darkreader-inline-fill=""></circle><path d="M245.91,.18c-21.42,0-38.79,17.8-38.79,39.76s17.37,39.76,38.79,39.76,38.79-17.8,38.79-39.76S267.33,.18,245.91,.18Zm0,68.67c-14.95,0-27.11-12.97-27.11-28.91s12.16-28.91,27.11-28.91,27.11,12.97,27.11,28.91-12.16,28.91-27.11,28.91Z" fill="#0172f0" style="--darkreader-inline-fill: #0c5bb4;" data-darkreader-inline-fill=""></path></svg>
