<svg viewBox="0 0 180 90"><g fill="none" clip-path="url(#logo-iitv--prefix__clip0)"><path d="M179.717 63.008H0v26.99h179.717v-26.99z" fill="#F9F9F9" style="--darkreader-inline-fill: #171816;" data-darkreader-inline-fill=""></path><path d="M20.968 71.103H19.31a.159.159 0 00-.17.107.158.158 0 00-.006.072v10.495c0 .814-.21 1.405-.631 1.772a2.46 2.46 0 01-1.668.558 3.231 3.231 0 01-.844-.117 2.107 2.107 0 01-.783-.404 2.175 2.175 0 01-.575-.764 2.756 2.756 0 01-.224-1.176 4.08 4.08 0 01.267-1.483c.155-.406.338-.8.55-1.179a.23.23 0 00.027-.134c0-.042-.04-.074-.099-.098l-1.456-.575c-.134-.062-.222-.048-.267.035a6.923 6.923 0 00-.754 1.673 6.365 6.365 0 00-.307 1.94 4.61 4.61 0 00.318 1.822c.205.494.522.934.924 1.286.407.346.88.607 1.39.764a5.86 5.86 0 001.75.251 6.084 6.084 0 001.794-.25 3.838 3.838 0 001.39-.765c.4-.35.71-.791.908-1.286a4.719 4.719 0 00.315-1.798V71.282a.157.157 0 00-.192-.179zM43.526 73.027h1.727a.159.159 0 00.172-.109.16.16 0 00.007-.073v-1.56a.16.16 0 00-.18-.182h-1.726a.16.16 0 00-.179.182v1.56a.16.16 0 00.18.182zM67.95 73.027h1.51a.159.159 0 00.134-.046.161.161 0 00.045-.135v-1.561a.16.16 0 00-.18-.182h-1.51a.16.16 0 00-.178.182v1.56a.16.16 0 00.179.182zM69.353 70.646h1.507a.16.16 0 00.182-.182v-1.56a.16.16 0 00-.182-.182h-1.507a.16.16 0 00-.175.108.16.16 0 00-.007.074v1.56a.16.16 0 00.182.182zM70.574 71.285v1.56a.16.16 0 00.179.182h1.51a.16.16 0 00.172-.109.16.16 0 00.007-.073v-1.56a.16.16 0 00-.18-.182h-1.51a.16.16 0 00-.178.182z" fill="#072536" style="--darkreader-inline-fill: #0b161c;" data-darkreader-inline-fill=""></path><path d="M96.15 74.762h-1.657a.158.158 0 00-.18.179v4.543c.029.265-.045.53-.205.743a.896.896 0 01-.658.206H77.151a1.87 1.87 0 01-1.087-.286.945.945 0 01-.404-.826v-4.38a.157.157 0 00-.107-.173.158.158 0 00-.072-.006h-1.654a.158.158 0 00-.18.179v3.725c0 .371-.013.674-.037.906-.01.19-.069.374-.17.534a.663.663 0 01-.391.252c-.22.045-.444.066-.668.061a1.464 1.464 0 01-.906-.267.958.958 0 01-.345-.818v-2.99a.157.157 0 00-.176-.182h-1.657a.159.159 0 00-.135.046.16.16 0 00-.044.136v2.298c0 .385 0 .69-.027.917-.008.188-.06.371-.155.534a.587.587 0 01-.388.267c-.235.049-.475.07-.716.064a1.379 1.379 0 01-.948-.267 1.07 1.07 0 01-.3-.844v-2.97a.16.16 0 00-.179-.181h-1.657a.157.157 0 00-.17.109.158.158 0 00-.006.073v3.116a1.7 1.7 0 01-.088.548.59.59 0 01-.251.315.991.991 0 01-.495.099H46.87a1.871 1.871 0 01-1.088-.286.946.946 0 01-.404-.826v-4.37a.157.157 0 00-.106-.172.158.158 0 00-.073-.006h-1.657a.157.157 0 00-.176.179v3.797c0 .31 0 .572-.019.789a1.602 1.602 0 01-.099.518.535.535 0 01-.267.289c-.153.065-.32.095-.486.088H25.789a.886.886 0 01-.654-.206 1.045 1.045 0 01-.209-.745v-8.189a.159.159 0 00-.104-.172.159.159 0 00-.072-.007h-1.657a.158.158 0 00-.18.18v8.671c0 .78.161 1.352.482 1.716.32.363.855.547 1.603.55h18.045c.454.017.907-.05 1.336-.2.331-.138.596-.398.74-.727a1.434 1.434 0 00.847.751c.353.109.72.166 1.088.168H64.369c.435.018.87-.057 1.275-.219.322-.152.578-.416.721-.743.313.642.893.962 1.745.962h.802c.438.018.874-.053 1.283-.21a1.43 1.43 0 00.73-.736c.147.297.382.541.673.7.33.173.697.257 1.069.246h.772c.439.019.876-.053 1.286-.21.321-.142.58-.397.727-.717.154.347.44.62.793.759.346.109.706.165 1.07.168h16.918c.749 0 1.283-.183 1.604-.55.32-.367.48-.939.48-1.716v-5.005a.158.158 0 00-.167-.18zM94.476 73.027h1.732a.16.16 0 00.179-.181v-1.561a.16.16 0 00-.106-.174.162.162 0 00-.073-.008h-1.724a.161.161 0 00-.182.182v1.56a.16.16 0 00.103.173.16.16 0 00.071.01zM117.2 73.027h1.51a.158.158 0 00.134-.046.158.158 0 00.039-.063.179.179 0 00.006-.072v-1.561a.18.18 0 00-.006-.073.158.158 0 00-.039-.062.158.158 0 00-.134-.047h-1.51a.158.158 0 00-.136.045.159.159 0 00-.046.137v1.56a.159.159 0 00.108.175c.024.009.049.011.074.007zM119.993 73.027h1.507a.163.163 0 00.137-.045.157.157 0 00.038-.063.153.153 0 00.007-.073v-1.561a.154.154 0 00-.007-.074.157.157 0 00-.101-.101.163.163 0 00-.074-.007h-1.507a.158.158 0 00-.136.045.159.159 0 00-.046.137v1.56a.159.159 0 00.108.175c.024.009.049.011.074.007zM140.632 73.027h1.724a.158.158 0 00.134-.046.164.164 0 00.045-.135v-1.561a.164.164 0 00-.106-.174.165.165 0 00-.073-.008h-1.724a.157.157 0 00-.136.046.159.159 0 00-.046.136v1.56a.159.159 0 00.109.175c.023.009.048.011.073.007zM163.169 74.762h-1.657a.161.161 0 00-.135.044.165.165 0 00-.038.062.15.15 0 00-.006.073v4.543c.03.265-.044.531-.206.743a.885.885 0 01-.655.206h-16.497c-.383.02-.763-.08-1.087-.286a.942.942 0 01-.407-.826v-4.38a.146.146 0 00-.006-.072.157.157 0 00-.17-.107h-1.657a.161.161 0 00-.135.044.165.165 0 00-.038.062.162.162 0 00-.006.073v3.797c0 .31 0 .572-.019.789a1.582 1.582 0 01-.096.518.536.536 0 01-.267.289c-.154.065-.32.095-.487.088h-16.39a1.868 1.868 0 01-1.087-.286.947.947 0 01-.404-.826v-4.37a.159.159 0 00-.044-.133.157.157 0 00-.132-.045h-1.534a.575.575 0 00-.203.034.137.137 0 00-.075.055.136.136 0 00-.024.09v3.725c0 .324 0 .593-.019.815a1.652 1.652 0 01-.099.535.561.561 0 01-.251.304.988.988 0 01-.494.1h-16.677c-.383.019-.763-.081-1.087-.287a.95.95 0 01-.404-.825v-2.962a.15.15 0 00-.006-.072.165.165 0 00-.038-.062.16.16 0 00-.135-.044H98.84a.159.159 0 00-.17.107.157.157 0 00-.006.072v5.01c0 .43 0 .802-.027 1.141-.01.289-.065.574-.163.845-.077.22-.225.409-.422.534a1.52 1.52 0 01-.802.182h-.735a.158.158 0 00-.179.18v1.437a.158.158 0 00.18.179h1.004a4.028 4.028 0 001.505-.243c.386-.146.723-.398.972-.727a3.12 3.12 0 00.535-1.216c.114-.56.168-1.13.16-1.702v-.343c.185.245.448.419.746.492a4.44 4.44 0 001.05.11h16.877c.463.017.926-.051 1.365-.2.338-.134.61-.395.757-.727a1.443 1.443 0 00.825.753c.396.123.808.181 1.222.174h16.622c.454.017.908-.051 1.337-.2.332-.137.597-.398.74-.727a1.431 1.431 0 00.826.753c.351.11.717.166 1.085.168h17.117c.748 0 1.282-.183 1.603-.55.318-.364.481-.935.481-1.716v-5.013a.153.153 0 00-.044-.133.157.157 0 00-.132-.046zM160.218 83.746h-1.51a.159.159 0 00-.172.11.164.164 0 00-.007.072v1.561a.164.164 0 00.045.135.157.157 0 00.134.046h1.51a.162.162 0 00.176-.108.166.166 0 00.006-.073v-1.56a.167.167 0 00-.006-.074.162.162 0 00-.176-.108zM163.032 83.746h-1.51a.159.159 0 00-.172.11.164.164 0 00-.007.072v1.56a.164.164 0 00.045.136.159.159 0 00.134.046h1.51a.162.162 0 00.173-.108.15.15 0 00.006-.073v-1.56a.15.15 0 00-.006-.074.161.161 0 00-.173-.109zM167.057 71.103H165.4a.156.156 0 00-.134.044.163.163 0 00-.045.135v10.762a.163.163 0 00.107.174c.023.008.048.01.072.008h1.657a.159.159 0 00.172-.11.163.163 0 00.005-.072V71.282a.174.174 0 00-.006-.072.157.157 0 00-.171-.107z" fill="#072536" style="--darkreader-inline-fill: #0b161c;" data-darkreader-inline-fill=""></path><path d="M179.717 0h-96.77v63.008h96.77V0z" fill="#0084BC" style="--darkreader-inline-fill: #194e60;" data-darkreader-inline-fill=""></path><path d="M82.947 0h-2.314v63.008h2.314V0z" fill="#F9F9F9" style="--darkreader-inline-fill: #171816;" data-darkreader-inline-fill=""></path><path d="M80.633 0H0v63.008h80.633V0z" fill="#CF2023" style="--darkreader-inline-fill: #6c201d;" data-darkreader-inline-fill=""></path><path d="M77.99 45.656V17.208c0-.289.152-.43.457-.43h6.916a.366.366 0 01.28.406v28.448c0 .289-.154.43-.456.43h-6.92a.374.374 0 01-.267-.406h-.01zM88.993 45.747V17.264a.382.382 0 01.42-.428h11.969c1.525-.022 3.042.211 4.49.69a9.152 9.152 0 013.332 1.964 8.646 8.646 0 012.05 3.004 9.708 9.708 0 01.722 3.79 9.502 9.502 0 01-1.254 4.893 8.405 8.405 0 01-3.592 3.297l5.401 11.182a.43.43 0 010 .366.316.316 0 01-.294.15h-7.477a.653.653 0 01-.649-.43L99.658 35.73h-2.814c-.176 0-.267.082-.267.267v9.754a.383.383 0 01-.428.43h-6.737a.384.384 0 01-.433-.43l.014-.005zm7.865-22.483c-.177 0-.268.082-.268.267v5.692c0 .174.086.267.268.267h4.054c1.085 0 1.943-.267 2.544-.839a2.95 2.95 0 00.903-2.263 2.938 2.938 0 00-.903-2.264c-.601-.566-1.459-.839-2.544-.839l-4.054-.021zM124.325 16.764h7.036a.535.535 0 01.554.433l9.928 28.445c.088.284 0 .433-.297.433h-7.122a.556.556 0 01-.572-.433l-1.368-4.527h-9.552l-1.376 4.527a.531.531 0 01-.564.433h-7.071c-.289 0-.385-.15-.297-.433l10.156-28.445a.533.533 0 01.555-.433h-.01zm3.418 8.926l-2.857 9.132h5.7l-2.72-9.132h-.123z" fill="#F9F9F9" style="--darkreader-inline-fill: #171816;" data-darkreader-inline-fill=""></path><path fill-rule="evenodd" clip-rule="evenodd" d="M142.914 45.643V17.197a.372.372 0 01.104-.324.377.377 0 01.321-.109h6.345a.708.708 0 01.737.433l8.857 16.596h.174V17.197a.372.372 0 01.108-.325.383.383 0 01.324-.108h6.046a.373.373 0 01.321.11.372.372 0 01.103.323v28.446a.376.376 0 01-.105.32.378.378 0 01-.319.112h-6.353a.715.715 0 01-.737-.432l-8.758-16.553h-.267v16.553a.383.383 0 01-.259.416.381.381 0 01-.174.017h-6.043a.379.379 0 01-.409-.26.376.376 0 01-.016-.173z" fill="#F9F9F9" style="--darkreader-inline-fill: #bcb4a4;" data-darkreader-inline-fill=""></path><path d="M20.164 39.531c-.02.778.094 1.554.339 2.293.189.56.493 1.073.893 1.507a3.45 3.45 0 001.298.85c.483.179.993.27 1.508.267 2.581 0 3.871-1.528 3.87-4.586V26.917a.377.377 0 01.427-.422h6.38a.376.376 0 01.424.422V40.21c0 1.924-.305 3.552-.914 4.885a8.65 8.65 0 01-2.467 3.226 9.654 9.654 0 01-3.573 1.764 16.638 16.638 0 01-4.23.534 16.16 16.16 0 01-4.212-.55 9.653 9.653 0 01-3.592-1.807 9.142 9.142 0 01-2.51-3.269c-.637-1.346-.956-2.995-.956-4.946.015-1.39.187-2.775.513-4.126a14.934 14.934 0 011.574-4.076c.113-.198.34-.267.68-.17l5.697 1.528c.17.058.267.141.3.267a.492.492 0 01-.044.34c-.386.822-.717 1.67-.991 2.535a10.708 10.708 0 00-.425 3.186h.01zM46.645 41.265a.382.382 0 01-.43.433h-6.767a.38.38 0 01-.43-.433V17.187a.379.379 0 01.43-.43h6.767a.383.383 0 01.43.43v24.078zM51.185 23.683a.383.383 0 01.433-.433h6.473a.382.382 0 01.435.433v9.824a1.785 1.785 0 00.775 1.502c.516.388 1.251.583 2.2.583h3.706c.713 0 1.238-.166 1.575-.498.33-.328.497-.927.497-1.787v-9.621a.38.38 0 01.438-.436h6.515a.382.382 0 01.433.433v12.585c0 1.867-.388 3.239-1.165 4.115-.777.877-2.072 1.312-3.886 1.307H62.71c-.832.02-1.66-.09-2.459-.323a3.789 3.789 0 01-1.726-1.187v.561c0 3.42-.713 5.919-2.138 7.5-1.426 1.58-3.735 2.37-6.927 2.37h-2.373a.38.38 0 01-.43-.43v-5.252a.38.38 0 01.43-.43h.863c1.382 0 2.267-.389 2.654-1.165.386-.777.58-1.926.582-3.448V23.683zM69.716 45.38h4.65a.31.31 0 01.31.313v4.65a.31.31 0 01-.31.31h-4.65a.313.313 0 01-.313-.31V45.7a.313.313 0 01.313-.313v-.005z" fill="#F9F9F9" style="--darkreader-inline-fill: #171816;" data-darkreader-inline-fill=""></path><path d="M62.899 45.38h4.65a.313.313 0 01.312.313v4.65a.313.313 0 01-.312.31h-4.65a.313.313 0 01-.313-.31V45.7a.313.313 0 01.313-.313v-.005zM23.106 16.756h4.65a.31.31 0 01.305.31v4.65a.31.31 0 01-.31.313h-4.645a.313.313 0 01-.313-.313v-4.65a.312.312 0 01.313-.31z" fill="#F9F9F9" style="--darkreader-inline-fill: #171816;" data-darkreader-inline-fill=""></path></g><defs><clipPath id="logo-iitv--prefix__clip0"><path fill="#fff" d="M0 0h179.717v90H0z" style="--darkreader-inline-fill: #c0b7a8;" data-darkreader-inline-fill=""></path></clipPath></defs></svg>
