<?xml version="1.0" encoding="UTF-8" standalone="no"?>
<svg
   xmlns:dc="http://purl.org/dc/elements/1.1/"
   xmlns:cc="http://creativecommons.org/ns#"
   xmlns:rdf="http://www.w3.org/1999/02/22-rdf-syntax-ns#"
   xmlns:svg="http://www.w3.org/2000/svg"
   xmlns="http://www.w3.org/2000/svg"
   xmlns:sodipodi="http://sodipodi.sourceforge.net/DTD/sodipodi-0.dtd"
   xmlns:inkscape="http://www.inkscape.org/namespaces/inkscape"
   width="100"
   height="95"
   viewBox="0 0 80 76"
   version="1.1"
   id="svg2"
   sodipodi:version="0.32"
   inkscape:version="0.92.4 (5da689c313, 2019-01-14)"
   sodipodi:docname="Sony Channel logo.svg">
  <title
     id="title4296">Press Tv logo</title>
  <metadata
     id="metadata59">
    <rdf:RDF>
      <cc:Work
         rdf:about="">
        <dc:format>image/svg+xml</dc:format>
        <dc:type
           rdf:resource="http://purl.org/dc/dcmitype/StillImage" />
        <dc:title>Press Tv logo</dc:title>
        <cc:license
           rdf:resource="http://scripts.sil.org/OFL" />
        <dc:date>24 feb 2020</dc:date>
        <dc:creator>
          <cc:Agent>
            <dc:title>EEIM</dc:title>
          </cc:Agent>
        </dc:creator>
      </cc:Work>
      <cc:License
         rdf:about="http://scripts.sil.org/OFL">
        <cc:permits
           rdf:resource="http://scripts.sil.org/pub/OFL/Reproduction" />
        <cc:permits
           rdf:resource="http://scripts.sil.org/pub/OFL/Distribution" />
        <cc:permits
           rdf:resource="http://scripts.sil.org/pub/OFL/Embedding" />
        <cc:permits
           rdf:resource="http://scripts.sil.org/pub/OFL/DerivativeWorks" />
        <cc:requires
           rdf:resource="http://scripts.sil.org/pub/OFL/Notice" />
        <cc:requires
           rdf:resource="http://scripts.sil.org/pub/OFL/Attribution" />
        <cc:requires
           rdf:resource="http://scripts.sil.org/pub/OFL/ShareAlike" />
        <cc:requires
           rdf:resource="http://scripts.sil.org/pub/OFL/DerivativeRenaming" />
        <cc:requires
           rdf:resource="http://scripts.sil.org/pub/OFL/BundlingWhenSelling" />
      </cc:License>
    </rdf:RDF>
  </metadata>
  <defs
     id="defs57" />
  <sodipodi:namedview
     inkscape:window-height="705"
     inkscape:window-width="1366"
     inkscape:pageshadow="2"
     inkscape:pageopacity="0"
     guidetolerance="1"
     gridtolerance="1"
     objecttolerance="1"
     borderopacity="1.0"
     bordercolor="#666666"
     pagecolor="#ffffff"
     id="base"
     inkscape:zoom="1"
     inkscape:cx="72.133113"
     inkscape:cy="78.907888"
     inkscape:window-x="-8"
     inkscape:window-y="-8"
     inkscape:current-layer="svg2"
     showgrid="false"
     showguides="false"
     inkscape:showpageshadow="false"
     units="px"
     inkscape:window-maximized="1" />
  <g
     id="#ffffffff"
     transform="translate(0,-1065)" />
  <g
     id="#2acbffff-4"
     transform="matrix(0.74035173,0,0,0.75447038,-840.95699,-751.15387)"
     style="fill:#00ff00" />
  <g
     transform="matrix(0.08460234,0,0,0.08460234,-16.502076,59.027103)"
     id="#000000ff"
     style="fill:#43a6c1;fill-opacity:1">
    <path
       style="opacity:1;fill:#43a6c1;fill-opacity:1;stroke-width:0.17012827"
       d="m 168.61523,204.0957 c -0.002,1.49472 0,2.98966 0,4.48438 4.3879,0.002 8.77638,0 13.16602,0 v 33.51562 h 5.28906 v -33.51367 c 3.79379,-0.001 7.58707,-0.001 11.38086,-0.002 4.34199,11.17292 8.68501,22.34385 13.0293,33.51562 h 5.17578 c 4.97521,-12.66586 9.95255,-25.33052 14.92773,-37.99804 -1.7161,-0.002 -3.43233,0 -5.14843,0 -2.84299,7.61611 -5.68409,15.23379 -8.52539,22.85156 -1.34325,3.63304 -2.78475,7.23842 -3.83008,10.97266 -0.80229,-2.90644 -1.82233,-5.74499 -2.84766,-8.58008 -3.02108,-8.41405 -6.04173,-16.83009 -9.06445,-25.24414 -0.62554,0 -1.25117,1.9e-4 -1.87695,0 v -0.002 z m -148.488277,0.0274 c -4.105041,0.002 -8.21094,-0.004 -12.3183592,0.006 0.00713,12.65522 0.00799,25.30919 -0.00391,37.96679 2.5519742,0.01 5.1042752,0.004 7.6562502,0.004 -0.0048,-4.77574 0.0056,-9.55239 -0.0039,-14.32813 4.007528,-0.0404 8.038165,0.16506 12.019531,-0.38671 2.173817,-0.27589 4.212199,-1.30354 5.84375,-2.75196 1.805172,-1.69576 3.009426,-4.0193 3.328126,-6.47851 0.371023,-2.78506 0.168652,-5.7466 -1.113282,-8.28907 -1.431769,-2.75651 -4.138009,-4.89754 -7.24414,-5.36132 -2.701812,-0.38054 -5.440846,-0.36421 -8.164063,-0.38086 z m 84.195317,0.01 c -9.356453,-0.002 -18.711915,-0.016 -28.068364,0.008 0,12.65048 0.0028,25.30223 -0.002,37.95508 9.608554,0.0166 19.214137,0.0166 28.820314,0 -0.0357,-2.13576 0.0502,-4.27286 -0.0449,-6.40625 -7.035167,0.0166 -14.073769,0.006 -21.111321,0.004 0.0048,-3.44148 0.0099,-6.88274 -0.002,-10.32422 6.340695,-0.007 12.682318,0.009 19.025391,-0.008 -0.0618,-2.12863 -0.0547,-4.25809 0,-6.38672 -6.340694,-0.0166 -12.682743,-0.006 -19.023437,-0.006 0.0071,-2.80408 0.0071,-5.60608 0,-8.41016 6.799717,-0.007 13.599145,-0.002 20.396487,-0.002 0.0119,-2.14052 -0.004,-4.28331 0.01,-6.42383 z m 18.05273,0.0703 c -2.56361,-0.0502 -5.14219,0.25003 -7.54492,1.13282 -2.2642,0.82991 -4.28969,2.36156 -5.45508,4.4375 -1.37469,2.28284 -1.63506,5.11617 -0.83594,7.6289 0.8467,2.61849 2.92434,4.79423 5.4668,5.98047 3.95045,1.92192 8.41312,2.39959 12.55859,3.78125 1.19632,0.4368 2.47677,1.07891 3,2.28125 0.67546,1.54719 0.12788,3.3981 -1.08984,4.54297 -1.45555,1.48282 -3.66377,1.91244 -5.69727,1.94922 -2.19522,0.0667 -4.56045,-0.41847 -6.17773,-1.94727 -1.44128,-1.34947 -2.0612,-3.26333 -2.47266,-5.10937 -2.46635,0.27587 -4.94337,0.48196 -7.41211,0.71875 0.41146,3.45759 1.7462,6.99115 4.53125,9.32227 3.011,2.55641 7.1789,3.28687 11.07227,3.27539 3.31543,-0.002 6.76603,-0.40269 9.69141,-2.02344 2.97294,-1.62535 4.97271,-4.7037 5.39843,-7.95899 0.27114,-2.5794 -0.10225,-5.34496 -1.63867,-7.53125 -1.55069,-2.30353 -4.12242,-3.72247 -6.76953,-4.55468 -3.8125,-1.37936 -7.9698,-1.72376 -11.65625,-3.44336 -1.49123,-0.62531 -2.43481,-2.39115 -1.70703,-3.88086 0.79675,-1.52879 2.68766,-2.08892 4.31445,-2.3418 2.15955,-0.2069 4.53762,-0.24173 6.43555,0.92383 1.50074,0.94716 2.05781,2.69486 2.43359,4.29492 2.53057,-0.19081 5.07252,-0.21454 7.60547,-0.35937 -0.0975,-2.70815 -1.06162,-5.45021 -3.05469,-7.4043 -2.17381,-2.24146 -5.3582,-3.24169 -8.44531,-3.55664 -0.84431,-0.0862 -1.69624,-0.14147 -2.55078,-0.15821 z m 32.61328,0.004 c -2.0501,-0.0492 -4.1068,0.12363 -6.0957,0.61328 -2.43068,0.6046 -4.76937,1.83113 -6.31055,3.78516 -1.57447,1.97012 -2.34596,4.53941 -2.00586,7.01758 0.32584,3.28047 2.6253,6.20233 5.63867,7.66211 3.94807,1.97932 8.43537,2.46754 12.60938,3.82617 1.17966,0.42069 2.43801,1.00246 3.04687,2.1289 0.82529,1.54714 0.30851,3.51887 -0.94726,4.70508 -1.36993,1.44139 -3.46967,1.91081 -5.41992,1.98438 -2.15955,0.0966 -4.49148,-0.26498 -6.17774,-1.67188 -1.63868,-1.33793 -2.37753,-3.39017 -2.76758,-5.36719 -2.47111,0.26207 -4.94643,0.47715 -7.41992,0.70704 0.39005,3.48506 1.76088,7.04464 4.58399,9.37109 3.02051,2.54024 7.19342,3.24462 11.08203,3.22852 3.80299,-0.007 7.87205,-0.5605 10.94726,-2.89844 2.6923,-2.07817 4.26804,-5.42194 4.15625,-8.7461 -0.019,-2.37012 -0.70668,-4.80223 -2.31445,-6.63671 -1.62442,-1.97472 -4.05022,-3.11431 -6.47852,-3.88672 -2.85402,-0.97472 -5.85028,-1.45743 -8.73046,-2.33789 -1.32237,-0.44828 -2.7713,-0.83203 -3.77735,-1.83203 -1.07026,-1.0276 -1.06857,-2.88902 0.0469,-3.88672 1.14874,-0.99771 2.70654,-1.42457 4.21679,-1.5625 1.91696,-0.12414 3.97381,-0.10625 5.69336,0.83398 1.62442,0.90115 2.32686,2.72762 2.62891,4.42188 2.54246,-0.15403 5.09035,-0.19858 7.63281,-0.34571 -0.0476,-3.30116 -1.59979,-6.61341 -4.40625,-8.56054 -2.13338,-1.52645 -4.7848,-2.17383 -7.38672,-2.4336 -0.67902,-0.0626 -1.36155,-0.10272 -2.04492,-0.11914 z m -114.830077,0.10938 c 0.0024,12.65998 0.0024,25.317 0,37.97461 2.547218,0 5.096888,0.008 7.646485,-0.002 -0.01665,-5.28232 -0.0035,-10.56185 -0.0059,-15.84179 1.828955,0.0333 3.723967,-0.14342 5.486328,0.45117 1.874144,0.70875 2.992226,2.47513 4.117188,4.02344 2.599542,3.75304 5.084318,7.58322 7.638672,11.36718 3.049051,0.007 6.09548,0.004 9.144531,0.002 -2.459219,-3.8458 -4.734522,-7.80963 -7.355469,-11.55079 -1.455553,-2.14765 -3.432567,-3.90386 -5.677734,-5.19531 2.047763,-0.34724 4.113158,-0.91849 5.839844,-2.11719 2.069168,-1.38895 3.466254,-3.66722 3.90625,-6.10742 0.508967,-2.80408 0.144264,-5.8391 -1.394532,-8.27929 -1.15588,-1.91458 -3.035168,-3.38903 -5.208984,-3.95508 -3.025228,-0.7995 -6.18875,-0.76753 -9.294882,-0.7699 z m -20.583984,6.23242 c 1.371716,0.004 2.742585,0.0299 4.111328,0.125 1.495985,0.088 3.020197,0.6449 4.021484,1.80078 1.253393,1.35566 1.470835,3.39959 0.978516,5.11914 -0.556535,1.83371 -2.266907,3.16136 -4.138672,3.42773 -3.008619,0.45903 -6.062198,0.24693 -9.089844,0.29688 0.0071,-3.58656 0.0043,-7.17473 0.002,-10.76367 1.371122,0.008 2.743519,-0.01 4.115235,-0.006 z m 33.611328,0.1914 c 1.796252,-5.9e-4 3.593014,0.009 5.388672,0.0606 1.781388,0.01 3.674502,0.95283 4.326172,2.69141 0.727776,2.0216 0.350721,4.70441 -1.578125,5.93164 -1.598255,0.98939 -3.575011,0.79429 -5.373047,0.91797 -2.716082,0.0571 -5.435837,0.0178 -8.154297,0.0273 0.0048,-3.2084 0.0015,-6.4166 0.0039,-9.625 1.795658,0.008 3.590466,-0.003 5.386719,-0.004 z"
       transform="matrix(4.2045868,0,0,4.2045868,164.53081,-820.31888)"
       id="path3"
       inkscape:connector-curvature="0" />
  </g>
  <path
     style="opacity:1;fill:#54eaed;fill-opacity:1;stroke:none;stroke-width:0;stroke-miterlimit:4;stroke-dasharray:none;stroke-opacity:1"
     d="M 41.835802,0.3554052 A 27.185886,29.160039 61.194713 0 0 20.498983,8.009592 27.185886,29.160039 61.194713 0 0 17.201645,47.112856 27.185886,29.160039 61.194713 0 0 57.674973,47.977139 27.185886,29.160039 61.194713 0 0 60.972314,8.873874 27.185886,29.160039 61.194713 0 0 41.835802,0.3554052 Z M 36.659829,6.738178 a 22.718817,22.720881 0 0 1 13.672215,4.585425 6.9527889,7.5380454 56.855296 0 1 7.107408,2.547691 6.9527889,7.5380454 56.855296 0 1 0.398098,7.285963 22.718817,22.720881 0 0 1 1.57294,8.257938 v 0.04377 A 22.718817,22.720881 0 0 1 36.702903,52.179751 22.718817,22.720881 0 0 1 13.973088,29.480502 22.718817,22.720881 0 0 1 36.659829,6.738178 Z"
     id="path4603"
     inkscape:connector-curvature="0" />
  <path
     style="opacity:1;fill:#000032;fill-opacity:1;stroke:none;stroke-width:0;stroke-miterlimit:4;stroke-dasharray:none;stroke-opacity:1"
     d="m 36.902301,14.138082 a 15.385336,15.385336 0 0 0 -15.385492,15.385497 15.385336,15.385336 0 0 0 15.385492,15.3848 15.385336,15.385336 0 0 0 15.3848,-15.3848 15.385336,15.385336 0 0 0 -0.546778,-4.053242 6.9527889,7.5380454 56.855298 0 1 -6.106259,-2.697757 6.9527889,7.5380454 56.855298 0 1 -0.786469,-6.402229 15.385336,15.385336 0 0 0 -7.945294,-2.232269 z"
     id="path4623"
     inkscape:connector-curvature="0" />
</svg>
