<?xml version="1.0" encoding="UTF-8" standalone="no"?>
<svg
   version="1.0"
   width="942pt"
   height="504pt"
   viewBox="0 0 942 504"
   preserveAspectRatio="xMidYMid"
   id="svg5"
   xmlns="http://www.w3.org/2000/svg"
   xmlns:svg="http://www.w3.org/2000/svg">
  <defs
     id="defs5" />
  <g
     transform="matrix(0.1,0,0,-0.1,0,504)"
     fill="#000000"
     stroke="none"
     id="g5">
    <path
       d="m 6610,4665 v -375 h 365 365 v 375 375 h -365 -365 z m 710,-10 v -345 h -345 -345 v 345 345 h 345 345 z"
       id="path1" />
    <path
       d="M 13,4563 C 4,4560 0,4528 0,4454 v -104 h 190 190 l 2,-557 3,-558 133,-3 132,-3 v 561 560 h 185 185 v 98 c 0,63 -4,102 -12,110 -9,9 -132,12 -498,11 -267,0 -491,-3 -497,-6 z m 987,-103 v -90 H 837 c -125,0 -168,-3 -183,-14 -18,-14 -19,-35 -24,-563 l -5,-548 H 515 405 l -2,545 c -3,542 -3,545 -24,563 -18,15 -44,17 -185,17 H 30 v 90 90 h 485 485 z"
       id="path2" />
    <path
       d="m 1102,4553 c 3,-10 99,-312 214,-671 l 209,-652 185,2 184,3 212,660 c 117,363 213,663 213,668 1,13 -246,8 -257,-5 -20,-26 -273,-846 -320,-1038 -7,-28 -13,-35 -32,-35 -22,0 -26,9 -60,145 -48,189 -279,923 -293,932 -7,4 -68,8 -136,8 -113,0 -123,-2 -119,-17 z m 258,-7 c 0,-2 54,-177 120,-388 67,-210 137,-446 156,-523 19,-77 44,-151 54,-165 l 18,-24 21,24 c 11,14 24,36 27,50 36,154 267,918 304,1008 9,21 15,22 120,22 106,0 110,-1 110,-21 0,-19 -376,-1208 -400,-1266 -9,-23 -13,-23 -180,-23 -167,0 -171,0 -180,23 -13,28 -410,1268 -410,1279 0,4 54,8 120,8 66,0 120,-2 120,-4 z"
       id="path3" />
    <path
       d="M 6155,4243 C 5683,4202 4965,3946 3876,3430 3467,3237 3295,3169 2970,3075 2725,3004 2434,2940 2110,2886 1527,2788 1095,2751 428,2743 L 0,2738 v -398 -398 l 153,-6 c 83,-4 217,-11 297,-16 383,-25 889,-2 1237,55 544,90 907,202 1305,401 159,80 929,414 954,414 23,0 16,-27 -20,-75 -78,-102 -111,-269 -111,-560 0,-162 4,-212 18,-264 35,-123 101,-222 171,-255 62,-29 347,6 536,66 126,40 196,77 266,138 69,60 89,67 171,53 123,-22 183,-89 191,-217 l 4,-71 -154,-81 C 4230,1106 3362,819 2743,770 c -76,-6 -162,-14 -190,-16 l -53,-5 V 384 c 0,-228 4,-364 10,-364 18,0 516,120 685,166 1023,274 1794,623 2046,926 27,33 51,72 54,90 39,226 33,473 -16,649 -41,150 -44,138 59,207 110,73 183,102 260,102 99,0 105,-13 113,-209 7,-172 20,-228 70,-304 40,-61 102,-97 176,-104 53,-5 81,3 343,90 700,235 1280,370 1795,418 209,19 511,17 634,-5 122,-22 130,-18 142,66 10,69 10,792 0,1108 -7,233 -9,248 -35,315 -73,190 -207,317 -401,382 -69,23 -96,26 -200,26 -184,-1 -277,-29 -474,-142 -568,-327 -1118,-565 -1466,-637 -109,-22 -147,-25 -235,-21 -58,3 -113,8 -123,12 -16,7 -17,-10 -15,-301 l 3,-309 95,-3 c 225,-8 518,47 775,145 148,56 242,101 409,196 478,270 870,407 1165,407 247,-1 390,-73 442,-225 31,-90 33,-239 6,-329 l -18,-59 -52,7 c -190,23 -277,28 -434,22 -495,-19 -918,-114 -1425,-320 -316,-128 -489,-182 -686,-211 -238,-36 -425,-1 -519,97 -18,18 -45,60 -60,93 -27,57 -28,67 -28,207 0,129 -3,149 -19,167 -32,35 -76,27 -230,-43 -239,-108 -390,-154 -466,-141 -22,4 -78,33 -137,72 -190,126 -385,208 -528,220 -57,4 -75,9 -73,20 5,21 1139,503 1299,552 373,113 685,161 934,142 72,-6 140,-13 153,-17 l 23,-7 -3,285 -3,285 -29,38 c -17,22 -50,47 -81,61 -48,22 -171,45 -220,42 -11,-1 -38,-3 -60,-5 z m 270,-44 c 42,-17 66,-34 82,-58 23,-33 23,-39 23,-308 v -273 l -57,7 c -121,16 -401,8 -536,-16 -367,-64 -531,-119 -1207,-408 -316,-135 -593,-254 -615,-266 -40,-20 -40,-20 -15,-29 14,-5 68,-14 121,-18 53,-5 125,-18 160,-30 103,-34 257,-112 363,-184 55,-36 110,-69 124,-73 71,-17 225,27 458,133 156,70 199,83 232,65 20,-11 21,-18 20,-144 -2,-114 1,-141 21,-199 62,-185 258,-278 522,-248 215,25 399,77 743,214 406,162 636,229 963,282 268,43 670,57 858,30 53,-8 97,-10 107,-5 9,5 22,25 29,44 7,19 19,35 26,35 10,0 13,-65 13,-327 0,-181 -3,-338 -6,-350 -8,-28 -24,-29 -160,-8 -116,17 -368,20 -551,4 -518,-42 -1143,-186 -1864,-429 -201,-69 -245,-80 -302,-80 -84,0 -121,15 -169,68 -58,64 -80,147 -84,320 -5,160 -14,191 -66,218 -65,33 -205,-12 -344,-112 -84,-60 -88,-68 -63,-140 50,-146 68,-430 40,-642 -13,-99 -15,-105 -57,-154 C 4976,816 4226,477 3205,201 3014,149 2556,40 2530,40 c -20,0 -20,7 -18,347 l 3,348 155,12 c 564,44 1233,239 1935,562 271,125 563,278 576,303 15,28 1,114 -27,170 -39,77 -126,128 -221,128 -53,0 -73,-10 -137,-67 -120,-107 -378,-184 -669,-199 l -122,-6 -42,36 c -52,45 -98,135 -120,236 -24,113 -22,379 5,540 32,183 35,191 116,305 8,11 17,31 21,43 6,22 5,23 -17,17 -75,-24 -874,-373 -978,-428 -539,-283 -1331,-457 -2105,-461 -217,-1 -742,18 -822,30 l -33,5 v 378 378 l 363,7 c 695,13 1143,51 1712,147 411,69 734,145 1040,246 238,78 380,136 685,280 886,420 1461,647 1935,764 293,73 536,87 660,38 z m 1969,-284 c 176,-37 318,-150 402,-318 l 48,-97 7,-148 c 12,-236 11,-312 -4,-312 -7,0 -23,25 -36,55 -64,154 -288,237 -551,206 -286,-35 -661,-179 -1050,-404 -365,-211 -714,-319 -1105,-342 -61,-3 -123,-3 -138,0 l -27,7 v 290 290 l 25,-6 c 142,-36 418,16 735,137 288,111 710,315 1030,499 91,52 189,103 217,112 136,45 320,58 447,31 z"
       id="path4" />
    <path
       d="m 8771,1739 c -392,-24 -1152,-135 -1956,-284 -506,-94 -1160,-228 -1167,-239 -4,-6 -8,-161 -8,-344 V 540 l 23,4 c 12,3 101,17 197,31 218,31 766,127 920,161 102,23 182,48 369,116 75,27 755,161 976,192 528,75 877,83 1139,26 71,-16 92,-17 98,-7 11,18 38,141 38,176 0,17 5,31 10,31 6,0 10,27 10,60 0,33 -3,60 -8,60 -4,0 -13,27 -19,60 -15,78 -44,138 -91,184 -94,95 -240,124 -531,105 z m 346,-25 c 91,-19 137,-40 179,-86 72,-75 100,-181 91,-341 -5,-99 -22,-193 -37,-210 -4,-5 -54,1 -111,13 -82,18 -148,24 -314,27 -349,8 -726,-35 -1300,-147 -368,-73 -447,-92 -541,-130 -149,-61 -299,-95 -814,-185 -227,-40 -578,-95 -603,-95 -4,0 -6,147 -5,328 l 3,327 355,72 c 1000,202 1808,338 2385,402 405,45 585,52 712,25 z"
       id="path5" />
  </g>
  <path
     style="fill:#ff6600;stroke-width:0.88617"
     d="m 566.70145,439.03414 c -0.34995,-4.42157 -0.3454,-18.89951 0.0101,-32.17319 l 0.6464,-24.13396 47.97059,-9.49667 c 131.40784,-26.01463 222.48339,-39.87811 270.03894,-41.10523 20.55075,-0.53028 28.4277,0.40227 36.8892,4.36731 7.4895,3.50955 13.6209,13.00174 15.44122,23.90476 1.6947,10.15094 -0.6825,33.9801 -3.49762,35.06036 -0.76508,0.29361 -5.4045,-0.20406 -10.3098,-1.10592 -11.38553,-2.09328 -49.57058,-2.85468 -69.04815,-1.3768 -26.03273,1.97526 -58.8912,6.9384 -99.82448,15.0781 -27.93545,5.55504 -35.23791,7.37976 -48.73941,12.17893 -14.77701,5.25255 -30.46053,8.9475 -62.91816,14.82316 -29.6291,5.36363 -70.54815,12.01839 -73.89906,12.01839 -2.03775,0 -2.1492,-0.32465 -2.75979,-8.03924 z"
     id="path6" />
  <path
     style="fill:#ff6600;stroke-width:0.88617"
     d="m 252.26341,498.76669 c -0.32493,-0.32492 -0.59079,-15.6534 -0.59079,-34.06329 v -33.4725 l 3.76623,-0.44691 c 2.07143,-0.2458 10.51445,-1.09806 18.76227,-1.89392 46.72085,-4.50823 99.40959,-18.73028 156.27357,-42.18229 34.80641,-14.35495 82.74606,-38.07181 87.44005,-43.25862 1.35159,-1.49349 1.52918,-2.65068 1.04237,-6.79265 -1.53412,-13.05295 -9.88624,-22.02911 -22.21833,-23.87842 -6.34758,-0.95188 -9.55321,0.12676 -16.12404,5.42545 -14.77891,11.91768 -35.81244,18.48146 -66.59208,20.7809 l -12.6688,0.94645 -3.41315,-2.70328 c -11.64095,-9.21979 -16.73286,-30.81597 -14.37823,-60.982 1.80895,-23.17511 4.39294,-34.28552 9.88763,-42.51387 1.95308,-2.92478 4.15538,-6.76409 4.89398,-8.53181 1.28982,-3.08698 1.27099,-3.21404 -0.47634,-3.21404 -3.24537,0 -66.82038,27.75851 -111.19137,48.54905 -44.78376,20.98395 -102.43032,34.68281 -164.82784,39.1689 -22.423958,1.61217 -84.069434,0.84654 -111.436028,-1.38403 l -6.8678271,-0.55978 v -37.46105 -37.46105 l 27.2497641,-0.59602 c 71.291521,-1.55933 107.529441,-4.16714 155.930031,-11.22127 60.05214,-8.75227 105.28267,-19.51806 146.96375,-34.98037 15.67135,-5.81354 29.38023,-11.82098 65.5319,-28.71702 77.11878,-36.04266 130.06101,-56.71151 173.68956,-67.809077 20.48892,-5.211668 29.694,-6.720915 44.50023,-7.296195 17.79405,-0.691373 26.57141,1.293 32.15358,7.269225 l 2.21543,2.371815 0.25774,27.949402 0.25774,27.9494 -2.03009,-0.48265 c -5.09443,-1.21118 -24.59353,-1.56836 -37.55033,-0.68784 -31.2178,2.12151 -58.9569,9.34795 -100.50703,26.18352 -17.21048,6.97347 -85.7532,36.17086 -98.58654,41.99528 -9.11141,4.13521 -8.59875,4.53541 8.71775,6.8054 17.06511,2.23704 28.77246,7.06232 52.04252,21.44973 l 12.2424,7.56922 6.36719,-0.50002 c 8.06196,-0.63312 18.08456,-3.93834 39.31692,-12.96582 16.70037,-7.10058 22.04385,-8.44766 24.0204,-6.0555 0.50996,0.61718 1.06814,7.38648 1.26049,15.28646 0.29383,12.06796 0.64013,14.92444 2.3262,19.18785 2.78432,7.04049 7.45056,12.76243 13.70367,16.80401 10.58667,6.84249 23.03483,8.86432 40.85487,6.63563 20.87729,-2.61105 36.18422,-7.02783 70.9806,-20.4813 46.89713,-18.13203 68.66114,-24.41112 101.02349,-29.14607 24.00495,-3.51216 67.09515,-4.78409 83.6841,-2.47017 8.5338,1.19035 10.47653,0.53627 12.43238,-4.1857 0.61875,-1.49374 1.4775,-2.49804 1.9083,-2.23177 1.02547,0.63378 0.99555,65.13511 -0.0308,66.7565 -0.83663,1.32145 -1.45238,1.29826 -23.11223,-0.87036 -13.35442,-1.33706 -42.06225,-0.50218 -61.8993,1.80017 -48.92595,5.67849 -98.51848,17.47792 -165.82819,39.45509 -13.90091,4.53877 -27.61492,8.73155 -30.47557,9.31728 -9.83746,2.01429 -17.94941,-0.70608 -23.15865,-7.76635 -4.37482,-5.92933 -5.71577,-11.1791 -6.72859,-26.34197 -1.48863,-22.28664 -2.6398,-25.23762 -10.41776,-26.70579 -6.58057,-1.24213 -21.42081,4.44426 -32.0338,12.27452 -8.22459,6.0681 -8.27314,6.25723 -4.96054,19.32553 5.1293,20.23523 5.39367,57.62878 0.48712,68.90027 -0.94211,2.16425 -4.46183,6.53714 -8.21392,10.20496 -35.06074,34.27329 -130.75841,72.35376 -249.76279,99.38677 -14.99322,3.40586 -15.22266,3.44237 -16.10302,2.56199 z"
     id="path7" />
  <path
     style="fill:#ff6600;stroke-width:0.88617"
     d="m 596.17168,247.96016 c -1.43578,-0.37521 -1.55079,-2.48715 -1.55079,-28.47622 v -28.07096 l 12.62793,-0.034 c 17.88717,-0.0481 35.30307,-3.93412 61.30998,-13.68021 24.54572,-9.19852 68.52597,-30.1836 99.30852,-47.38489 23.0139,-12.86014 26.80245,-14.57855 36.64785,-16.62286 11.16488,-2.31827 27.38108,-2.48776 36.01823,-0.37646 12.73575,3.11316 25.0422,11.27412 32.66947,21.66461 1.70903,2.32811 4.9014,7.83785 7.09418,12.24389 l 3.98693,8.01096 0.63427,21.85567 c 0.40958,14.11319 0.32663,21.85568 -0.23415,21.85568 -0.47767,0 -1.83382,-2.07105 -3.0138,-4.60233 -4.36417,-9.36216 -13.49835,-15.88185 -27.13815,-19.37032 -8.32905,-2.13021 -24.7611,-2.32514 -35.57505,-0.42203 -26.8215,4.72023 -58.66642,17.29893 -95.36699,37.66987 -41.0668,22.79446 -69.51373,32.11186 -108.1442,35.42114 -10.92376,0.93579 -16.55569,1.02882 -19.27422,0.31839 z"
     id="path8" />
  <path
     style="fill:#ff0000;stroke-width:0.88617"
     d="M 663.74224,38.548447 V 4.8739417 h 34.11759 34.11759 V 38.548447 72.222954 h -34.11759 -34.11759 z"
     id="path9" />
  <path
     style="fill:#ff0000;stroke-width:0.88617"
     d="m 40.686712,132.26105 c -0.08864,-54.210125 -0.463283,-62.262689 -2.982417,-64.104724 -1.32467,-0.968623 -5.366271,-1.2504 -17.934816,-1.2504 H 3.5446849 V 58.044214 49.182502 H 51.39793 99.251175 v 8.861712 8.861712 H 83.02638 c -12.511915,0 -16.613243,0.284044 -17.922275,1.24123 -1.609513,1.176905 -1.729322,3.209051 -2.311869,39.213074 -0.337913,20.88452 -0.647206,45.6483 -0.687318,55.03065 l -0.07293,17.05879 H 51.39793 40.763875 Z"
     id="path10" />
  <path
     style="fill:#ff6600;stroke-width:0.88617"
     d="m 153.84318,177.45578 c -1.1054,-1.72508 -18.89881,-56.36923 -35.85335,-110.106768 l -5.31226,-16.837253 2.37006,-0.559781 c 4.49534,-1.061751 18.35713,-0.824864 19.79245,0.338238 1.28633,1.042365 16.66883,49.504596 24.68244,77.761524 6.13359,21.62771 8.05362,27.67068 9.48673,29.8579 1.32499,2.02218 1.44154,2.0421 3.11052,0.53169 2.60982,-2.36185 3.25052,-3.92906 6.57925,-16.09338 4.26814,-15.59727 18.1347,-61.638642 23.46949,-77.926106 5.11264,-15.609267 4.73959,-15.246655 15.66576,-15.227241 9.49947,0.01687 10.92203,0.491981 10.21679,3.412174 -2.25085,9.320096 -38.38952,122.562673 -39.84259,124.849003 -1.23718,1.94665 -1.64419,1.99389 -17.17743,1.99389 -15.53015,0 -15.94074,-0.0476 -17.18786,-1.99389 z"
     id="path11" />
  <path
     style="fill:#ff6600;stroke-width:0.88617"
     d="M 663.74224,38.548447 V 4.8739417 h 34.11759 34.11759 V 38.548447 72.222954 h -34.11759 -34.11759 z"
     id="path12" />
  <path
     style="fill:#d40000;stroke-width:0.88617"
     d="m 159.9539,178.69209 -5.31703,-0.57167 -9.4832,-28.35749 C 131.04326,107.56879 113.4208,51.686511 113.9535,50.824597 c 0.77267,-1.250217 19.50117,-0.929395 20.53641,0.35179 1.20376,1.489738 11.95209,34.53347 19.24069,59.151923 14.93616,50.44936 14.91511,50.3905 17.64932,49.34128 2.62283,-1.00648 4.37878,-5.359 9.9842,-24.74816 14.83789,-51.324255 24.51344,-81.376256 26.89334,-83.530048 1.52883,-1.383562 3.14994,-1.633609 9.90925,-1.528453 4.44477,0.06915 8.44973,0.494064 8.89993,0.944256 0.98097,0.980967 0.37125,3.095986 -14.09317,48.887075 -14.65704,46.40092 -25.02343,77.82795 -25.83807,78.33142 -1.20429,0.7443 -21.76799,1.24847 -27.1815,0.66641 z"
     id="path13" />
</svg>
