<svg fill="none" height="32" viewBox="0 0 131 32" width="131" xmlns="http://www.w3.org/2000/svg" xmlns:xlink="http://www.w3.org/1999/xlink"><linearGradient id="a" gradientUnits="userSpaceOnUse" x1="50.3701" x2="50.3701" y1="0" y2="32"><stop offset=".4" stop-color="#e90e10"/><stop offset="1" stop-color="#bc0000"/></linearGradient><linearGradient id="b"><stop offset="0" stop-color="#fff"/><stop offset="1" stop-color="#fff" stop-opacity=".25"/></linearGradient><linearGradient id="c" gradientUnits="userSpaceOnUse" x1="126.877" x2="126.85" xlink:href="#b" y1="14.9546" y2="-.982532"/><linearGradient id="d" gradientUnits="userSpaceOnUse" x1="36.6748" x2="36.6177" xlink:href="#b" y1="16.772" y2="6.05273"/><path d="m128.277 0h-75.7941c-1.1564 0-2.1025.96-2.1025 2.13333v27.73337c0 1.1733.9461 2.1333 2.1025 2.1333h75.7941c1.156 0 2.102-.96 2.102-2.1333v-27.73337c0-1.17333-.946-2.13333-2.102-2.13333z" fill="url(#a)"/><path d="m51.8784 15.8667h.2103c6.2285-.2134 76.7143-2.72 76.7143-2.72.788-.0267 1.576-.6134 1.576-1.6267v-9.38667c0-1.17333-.946-2.13333-2.102-2.13333h-75.7941c-1.1564 0-2.1025.96-2.1025 2.13333v15.41337c0-.1867.0263-1.52 1.498-1.68z" fill="url(#c)" opacity=".35"/><path clip-rule="evenodd" d="m19.9209 22.16c0 1.4667-.5782 2.32-3.4165 2.32-.3679 0-.7096-.0267-1.025-.08v-19.52001c0-1.49333.4994-3.04 3.364-3.04.3679 0 .7358.02667 1.0775.10667zm11.5899 7.5467c.3679.1866 1.13.4266 2.1024.4533 1.6557.0267 2.5493-.6133 3.2063-2.1067l8.8304-19.94662c-.368-.18667-1.1827-.42667-1.8397-.42667-1.1301-.02666-2.6544.21334-3.6268 2.55999l-2.8646 6.8267-5.5978-9.25335c-.3679-.10667-1.2615-.26667-1.8922-.26667-1.9974 0-3.1012.74667-4.2312 2l-5.4665 6.02662 4.3889 6.9867c.8148 1.28 1.866 1.92 3.6005 1.92 1.1301 0 2.0762-.2667 2.523-.48l-5.2825-8.0267 3.7319-4.0266 6.1497 9.76zm-22.81183-5.36c3.60043-.4 5.36133-2.4 5.36133-5.1467 0-2.3733-1.4455-4.2933-4.75687-4.8533l-3.25883-.6134c-1.05124-.1866-1.70826-.4266-1.70826-1.04 0-.5866.68331-1.04 2.339-1.04.94863 0 1.81961.0525 2.56352.0974.55448.0334 1.03834.0626 1.43114.0626 1.209 0 2.4442-.5066 2.4442-2.90665 0-.32-.0526-.64-.1052-.93333-1.7871-.24-5.0459-.56-7.70027-.26667-3.52163.37334-5.30873 2.53335-5.30873 5.09335 0 2.1067 1.52429 4.1067 4.36262 4.64l3.41652.6667c1.26148.2666 1.89222.5333 1.89222 1.2266 0 .5067-.49934 1.0667-2.10247 1.0667-.76808 0-1.67215-.0581-2.53666-.1137-.79199-.0509-1.55077-.0996-2.14133-.0996-1.20892 0-2.470406.5333-2.470406 2.9333 0 .2933.052562.6667.105123.96 1.787103.2133 5.571543.56 8.173353.2667z" fill="#ebebeb" fill-rule="evenodd"/><path clip-rule="evenodd" d="m18.8434 1.83999c-2.8646 0-3.3377 1.54667-3.3377 3.04v13.38671c0-.5334.4205-1.0934 1.0775-1.12.2263-.0128.6509-.0255 1.0755-.0383h.0002c.4631-.0139.9263-.0278 1.1319-.0417.4468-.0267 1.1038-.32 1.1301-1.1467v-13.97334c-.3416-.05334-.7096-.10667-1.0775-.10667zm12.8776 5.97336 5.4664 9.01335c-.2102-.2934-.473-.4267-.7096-.4267-.0824 0-1.0195.0365-1.914.0712h-.0001c-.8165.0318-1.5974.0621-1.6601.0621-.1576 0-.8409 0-1.2877-.6133l-2.523-4-3.7319 4.0267.9724 1.4933c-.2628-.3467-.6833-.64-1.3666-.6133-.0992 0-.7373.0238-1.4111.0489h-.0002-.0001-.0001c-.7533.028-1.5509.0577-1.6896.0577-.7359.0267-1.1038-.4-1.2878-.6666l-.4468-.6934 5.4665-6.02662c1.13-1.25333 2.2338-2 4.2312-2 .6307 0 1.5243.16 1.8922.26667zm10.6963 7.59995 3.2326-7.30664c-.368-.21334-1.1827-.42667-1.8134-.42667-1.1301-.02667-2.6544.21333-3.6268 2.56001l-2.7735 6.6373c-.002.0046-.0038.0086-.0053.0122-.0012.0027-.0022.0052-.0031.0073l-.0038.0099.0122-.0294c.0488-.1084.2485-.4812.6973-.504 0 0 2.7332-.1066 2.9435-.1066.876-.0262 1.2216-.6419 1.3339-.8419zm-36.39898-1.7333 3.25882.6133c3.33766.6133 4.78316 2.5333 4.80936 4.9067 0 .1666 0 .312-.0187.4551.041-1.2329-.7667-2.4-2.1626-2.3485-.2582.011-.8909.0308-1.5752.0523-.9871.031-2.08153.0653-2.31434.0811-1.26148.0533-2.91717-.0534-3.65304-.1867-.89355-.16-1.76081-.4-2.62808-.96-1.156361-.9067-1.73454-2.1867-1.73454-3.4933 0-2.56 1.7871-4.72002 5.28245-5.14669 2.68065-.29333 5.91315.05334 7.70025.26667.0789.32.1052.61333.1052.93333 0 2.39999-1.2352 2.90669-2.4442 2.90669-.3946 0-.88592-.0295-1.44704-.0631-.74682-.0448-1.61722-.0969-2.5476-.0969-1.6557 0-2.339.48-2.339 1.04 0 .6133.65702.8533 1.70826 1.04zm8.04948 5.9751c-.0022.0172-.0047.0344-.0075.0515v.0267.0533c.0036-.0438.0061-.0877.0075-.1315z" fill="url(#d)" fill-rule="evenodd"/><g fill="#fff"><path d="m70.1699 14.7733v8.1334c0 .5866-.3416.9866-1.3666.9866-.4205 0-.9198-.0533-1.1826-.1333v-8.64c0-3.0133-1.4455-4.4533-3.6531-4.4533-1.7082 0-3.5479 1.2-4.31 2.6133v9.6533c0 .5867-.3417.9867-1.3666.9867-.4205 0-.9199-.0533-1.1827-.1333v-15.14669c.2366-.05333.7359-.13333 1.1827-.13333 1.0249 0 1.3666.37333 1.3666.98667v1.27995c1.0775-1.35995 2.7332-2.42662 4.9145-2.42662 3.0486 0 5.5978 1.94662 5.5978 6.42662z"/><path clip-rule="evenodd" d="m75.794 17.12h11.511c.0789-.5333.1052-1.0667.0526-1.52 0-3.6533-2.2602-7.25332-6.833-7.25332-4.0473 0-7.3587 3.25332-7.3587 7.78662 0 4.72 3.1275 7.8934 7.7792 7.8934 2.155 0 4.1786-.6667 5.519-1.2534.1314-1.3866-.3417-1.9733-1.0513-1.9733-.2146 0-.4291.0711-.8583.2133-.0965.032-.2038.0676-.3243.1067-.9199.32-1.9185.56-3.18.56-2.9435 0-4.9145-1.6267-5.2562-4.56zm9.1458-2h-9.1458c.3942-2.9867 2.4704-4.5867 4.7831-4.5867 2.6281 0 4.2575 2 4.3627 4.5867z" fill-rule="evenodd"/><path d="m110.748 8.88004-3.943 13.89336c-.236.88-.893 1.0933-1.839 1.0933-.526 0-1.051-.1067-1.498-.2133l-3.7584-12.2134-3.5216 11.3334c-.2891.88-.9724 1.0933-1.7871 1.0933-.5257 0-1.1038-.1067-1.5506-.2133l-4.2049-14.77336c.3679-.18667 1.0512-.37333 1.6031-.37333.7096 0 1.0775.21333 1.2615.90666l2.9697 11.60003h.0263l3.6793-12.13336c.4205-.24.9987-.37333 1.5769-.37333.9728 0 1.4978.21333 1.7608 1.12l3.416 11.35999h.027l2.891-11.59999c.184-.69334.552-.90667 1.261-.90667.631.02667 1.262.21333 1.63.4z"/><path d="m112.43 22.9867c-.184-1.3067.21-2 .972-2 .71 0 2.444.7733 4.862.7733 2.549 0 3.495-.9067 3.495-2.1067 0-.8533-.368-1.6-2.654-2.24l-2.628-.72c-2.917-.7733-4.047-2.2666-4.047-4.08 0-2.2666 1.76-4.26662 5.755-4.26662 1.787 0 4.021.4 5.388.93333.236 1.27999-.158 1.97329-.92 1.97329-.684 0-2.234-.6666-4.415-.6666-2.366 0-3.233.8266-3.233 1.8933 0 .7467.342 1.44 2.444 2.0533l2.681.7467c2.996.8533 4.205 2.2667 4.205 4.2667 0 2.3466-1.787 4.4533-6.124 4.4533-1.944.0267-4.336-.4533-5.781-1.0133z"/></g></svg>