<?xml version="1.0" encoding="UTF-8" standalone="no"?>
<svg
   version="1.0"
   width="231.000000pt"
   height="130.000000pt"
   viewBox="0 0 231.000000 130.000000"
   preserveAspectRatio="xMidYMid meet"
   id="svg6"
   sodipodi:docname="snn.svg"
   inkscape:version="1.2.2 (b0a8486541, 2022-12-01)"
   xmlns:inkscape="http://www.inkscape.org/namespaces/inkscape"
   xmlns:sodipodi="http://sodipodi.sourceforge.net/DTD/sodipodi-0.dtd"
   xmlns="http://www.w3.org/2000/svg"
   xmlns:svg="http://www.w3.org/2000/svg">
  <defs
     id="defs10" />
  <sodipodi:namedview
     id="namedview8"
     pagecolor="#ffffff"
     bordercolor="#666666"
     borderopacity="1.0"
     inkscape:showpageshadow="2"
     inkscape:pageopacity="0.0"
     inkscape:pagecheckerboard="0"
     inkscape:deskcolor="#d1d1d1"
     inkscape:document-units="pt"
     showgrid="false"
     inkscape:zoom="4.2532468"
     inkscape:cx="154"
     inkscape:cy="87.109923"
     inkscape:window-width="1600"
     inkscape:window-height="872"
     inkscape:window-x="1920"
     inkscape:window-y="90"
     inkscape:window-maximized="1"
     inkscape:current-layer="g4">
    <inkscape:grid
       type="xygrid"
       id="grid319" />
  </sodipodi:namedview>
  <g
     transform="translate(0.000000,130.000000) scale(0.100000,-0.100000)"
     fill="#000000"
     stroke="none"
     id="g4"
     style="fill:#800000">
    <path
       d="M 0,650 45.670928,51.29497 1155,0 2278.2456,47.408887 2310,650 2265.2225,1246.6439 1155,1300 73.534827,1244.2173 Z M 1420,777 C 1400,648 1353,578 1232,499 1096,410 926,360 757,360 c -147,0 -228,33 -267,110 -22,44 -27,131 -9,193 12,43 31,51 23,8 -9,-43 13,-98 50,-126 102,-78 386,-72 598,13 151,61 188,95 197,185 5,51 13,71 41,106 31,38 35,41 38,22 2,-12 -2,-54 -8,-94 z m 114,31 c -11,-199 -33,-296 -81,-370 -47,-70 -121,-97 -171,-62 -33,23 -28,50 12,64 46,15 124,67 139,94 6,11 14,73 17,136 5,111 7,117 40,167 19,29 38,52 42,52 3,1 4,-36 2,-81 z m -661,41 c 20,-17 37,-38 37,-47 0,-21 -59,-82 -80,-82 -9,0 -31,13 -50,28 l -34,29 40,51 c 21,28 41,51 44,52 3,0 22,-14 43,-31 z m 363,4 c 43,-35 43,-60 -1,-103 l -35,-34 -35,18 c -59,32 -60,39 -19,95 21,28 42,51 47,51 4,0 24,-12 43,-27 z M 382,835 c 62,-31 67,-31 146,1 41,16 68,22 74,16 13,-13 1,-73 -23,-111 -16,-26 -25,-31 -56,-31 -33,0 -45,-8 -94,-60 C 397,617 369,578 366,563 355,513 300,430 258,400 149,320 26,347 44,445 c 7,35 8,36 44,28 85,-17 154,-1 196,46 l 19,21 h -49 c -83,0 -91,24 -42,124 28,58 57,86 88,86 5,0 23,-12 40,-27 l 32,-27 19,25 c 10,13 19,27 19,30 0,12 -105,52 -139,53 -40,0 -71,-32 -122,-127 -50,-94 -48,-46 2,52 67,131 126,158 231,106 z m 1648,-24 c 0,-12 -14,-26 -37,-38 -49,-24 -64,-50 -40,-67 46,-34 -8,-163 -77,-186 -31,-10 -41,-9 -61,4 -44,29 -45,95 -3,183 28,59 32,49 8,-15 -25,-65 -25,-84 0,-107 26,-23 79,-13 111,21 l 24,26 -22,15 c -13,9 -23,25 -23,38 0,30 56,112 89,130 33,18 31,18 31,-4 z m 90,-6 c 10,-12 10,-18 0,-30 -14,-17 -20,-18 -38,-6 -12,7 -12,12 -1,30 16,25 22,26 39,6 z m 93,-22 c -6,-16 -4,-16 15,1 12,11 22,15 22,10 0,-24 -36,-56 -110,-98 -80,-46 -80,-47 -64,-71 21,-32 11,-58 -40,-110 -22,-23 -48,-51 -56,-63 -8,-11 -31,-22 -50,-25 -30,-5 -32,-5 -15,6 18,11 69,61 107,105 8,10 23,22 34,29 18,12 18,13 -4,32 -28,25 -23,50 17,84 15,13 30,29 32,35 3,9 96,74 116,81 1,1 0,-7 -4,-16 z m -561,-22 c 33,-29 33,-31 33,-118 0,-76 -4,-95 -27,-139 -15,-28 -38,-64 -52,-81 -31,-36 -88,-68 -109,-60 -14,5 -14,12 -4,48 7,23 21,47 32,53 42,23 85,58 95,76 14,26 -3,60 -45,89 -37,25 -37,19 4,114 11,26 25,47 30,47 6,0 25,-13 43,-29 z m 378,-51 c -8,-64 -26,-127 -35,-119 -2,3 0,22 5,44 5,22 10,55 10,73 0,31 17,78 25,70 2,-2 0,-32 -5,-68 z M 975,729 c 19,-17 35,-35 35,-40 0,-13 -71,-89 -83,-89 -6,0 -28,12 -49,26 l -38,27 -40,-37 c -22,-20 -48,-36 -58,-36 -9,0 -33,14 -52,30 l -35,29 49,50 49,50 36,-30 c 19,-16 40,-29 46,-29 6,0 29,18 50,40 21,22 42,40 47,40 4,0 23,-14 43,-31 z m 1245,-34 c 10,-12 10,-18 0,-30 -14,-17 -20,-18 -39,-6 -10,7 -11,13 -2,30 14,25 24,26 41,6 z m 28,-69 c 7,-8 -79,-107 -88,-101 -19,11 -61,-17 -100,-67 -40,-50 -86,-86 -97,-75 -2,3 7,13 22,23 14,9 47,46 72,81 45,63 84,93 121,93 22,0 37,26 21,36 -5,3 -16,3 -24,0 -16,-6 -20,5 -7,18 7,8 70,1 80,-8 z M 1963,517 c -11,-17 -35,-40 -53,-49 -58,-28 -67,-20 -17,15 25,17 54,47 64,65 12,23 19,28 21,17 2,-8 -5,-30 -15,-48 z M 441,479 c 47,-37 49,-57 10,-98 -36,-38 -62,-39 -102,-3 l -32,29 39,51 c 21,28 41,51 43,51 2,1 21,-13 42,-30 z m 1716,-43 c -7,-18 -42,-22 -52,-5 -4,5 1,19 11,30 15,17 19,18 32,5 8,-8 12,-22 9,-30 z"
       id="path2"
       style="fill:#800000"
       sodipodi:nodetypes="cccccccccccscccccccccccccccccccssccccccccccscccscscccccccscscccsccccsccccccccccssscccccccsccccccccccscccsccccccccscccsssccsscccscccccssscccccccccccsscsccccccccccccccccccsc" />
    <path
       style="fill:#ffffff;stroke-width:0.235114"
       d="m 15.478715,125.99113 c -4.81366,-0.43793 -8.2470431,-2.96327 -9.3781211,-6.89782 -0.7670143,-2.66813 0.037991,-7.91727 1.3658597,-8.90626 l 0.6481331,-0.48273 2.8785843,0.5212 c 4.253284,0.77011 6.105196,0.96842 9.109119,0.97543 7.962915,0.0186 13.652676,-2.37719 18.6486,-7.85238 l 1.837914,-2.01422 -3.013486,-0.007 c -4.278943,-0.0102 -8.592507,-0.36225 -10.047718,-0.81997 -4.421957,-1.39088 -4.220031,-5.27574 0.806346,-15.513298 1.982073,-4.037017 3.6125,-6.542487 5.530364,-8.498482 1.676644,-1.709979 3.938237,-2.915761 5.588674,-2.979636 1.286176,-0.04978 2.450216,0.686762 6.502736,4.114567 1.577569,1.334381 3.057577,2.562117 3.288906,2.728303 0.377942,0.271512 0.610995,0.04499 2.297951,-2.233588 3.713706,-5.016114 3.721343,-5.040767 1.919552,-6.196972 -2.605882,-1.67219 -10.64152,-4.662964 -14.816297,-5.51446 -3.843476,-0.783922 -6.542715,-0.01353 -9.436236,2.693223 -2.737885,2.561156 -4.860981,5.682263 -9.389128,13.80271 -1.332097,2.388884 -2.898102,4.946048 -3.48001,5.682584 -1.046509,1.324593 -1.058855,1.331801 -1.135269,0.662971 -0.302574,-2.648363 5.846438,-15.706085 10.255124,-21.77725 5.815149,-8.007994 12.004463,-10.280136 20.369212,-7.477688 1.169847,0.391935 3.874259,1.5383 6.009804,2.547478 4.941246,2.335046 6.102717,2.675537 8.596078,2.519982 2.030578,-0.126684 3.739846,-0.657392 10.765481,-3.342559 3.810983,-1.456541 7.480008,-2.401294 8.414631,-2.166719 0.82769,0.207737 1.146312,1.068101 1.146312,3.095351 0,5.623039 -3.841526,13.985413 -7.053435,15.354175 -0.464612,0.197995 -2.102502,0.432134 -3.761832,0.537758 -3.401975,0.216553 -4.45194,0.534976 -6.435166,1.951599 -1.631424,1.165329 -7.5325,7.12801 -9.686734,9.78786 -3.48099,4.298006 -4.450837,5.935682 -5.603188,9.461485 -2.043269,6.251716 -7.760431,14.964016 -12.429544,18.941186 -6.005676,5.11567 -13.750924,7.90037 -20.313217,7.30336 z"
       id="path303"
       transform="matrix(7.5,0,0,-7.5,0,1300)" />
    <path
       style="fill:#ffffff;stroke-width:0.235114"
       d="m 15.342317,126.00633 c -6.2751686,-0.7162 -9.8973159,-4.64894 -9.5069694,-10.32218 0.256391,-3.72636 1.1522485,-5.88568 2.441842,-5.88568 0.3047004,0 2.0055324,0.28093 3.7796264,0.62428 2.785426,0.53908 3.851304,0.62611 7.810359,0.63776 3.899126,0.0115 4.907222,-0.0621 6.741255,-0.49229 4.709713,-1.10463 7.985631,-3.0047 11.647203,-6.75552 l 2.304623,-2.36079 -5.119891,-0.16192 c -5.457473,-0.17258 -8.016541,-0.54674 -9.341911,-1.365866 -0.997285,-0.616358 -1.764103,-2.17038 -1.764103,-3.575109 0,-2.957324 3.652428,-11.706186 6.971016,-16.698053 2.428871,-3.653547 5.593242,-6.03633 8.147617,-6.135188 1.292629,-0.05003 2.456028,0.690434 6.770478,4.309158 1.694583,1.421325 3.202504,2.583912 3.350936,2.583527 0.28916,-7.53e-4 3.855934,-4.700622 4.690443,-6.180506 0.383316,-0.679757 0.443242,-0.986484 0.252642,-1.29313 C 53.58318,71.43167 45.701999,68.137931 39.381679,66.6092 37.439288,66.139383 36.564927,66.040913 35.280426,66.147323 30.561558,66.538237 26.593197,70.7303 20.444238,81.819846 c -2.561783,4.620132 -4.026081,6.957314 -4.773405,7.618883 -0.505382,0.44739 -0.505948,0.447075 -0.505948,-0.281756 0,-2.789311 5.1993,-14.110193 9.33163,-20.318563 1.938743,-2.912745 5.180524,-6.36427 7.234301,-7.702357 4.021379,-2.620033 8.563728,-2.986328 14.102127,-1.137197 1.171729,0.391211 3.897867,1.546431 6.058085,2.567158 7.288853,3.444062 7.936516,3.435463 17.653598,-0.234367 5.326886,-2.011795 9.039568,-3.032137 10.081438,-2.770644 0.9474,0.237782 1.218316,1.215979 1.071099,3.867427 -0.259056,4.665769 -2.531287,10.360929 -5.308389,13.30504 -1.240606,1.315212 -2.097208,1.596028 -5.559767,1.822636 -2.848431,0.186417 -3.176522,0.259089 -4.819847,1.067597 -1.519233,0.747455 -2.286639,1.390824 -5.543065,4.64712 -6.680108,6.679848 -9.592187,10.624992 -11.031786,14.945333 -1.869341,5.610024 -5.510585,11.758934 -10.038402,16.951684 -4.234217,4.85604 -12.500563,9.26137 -18.283109,9.74351 -0.846314,0.0706 -1.909058,0.16153 -2.361653,0.20214 -0.452596,0.0406 -1.536568,-0.008 -2.408828,-0.10716 z"
       id="path305"
       transform="matrix(7.5,0,0,-7.5,0,1300)" />
    <path
       style="fill:#ffffff;stroke-width:0.235114"
       d="m 15.186436,126.01057 c -2.18169,-0.29534 -3.880698,-0.88771 -5.4438697,-1.89804 -2.773056,-1.79231 -4.149001,-4.74688 -3.9139117,-8.40434 0.1607317,-2.50062 0.7271536,-4.66592 1.4127041,-5.40045 0.5979915,-0.64071 0.8772539,-0.63179 5.4215533,0.17317 8.553147,1.51506 16.05539,0.47551 21.209352,-2.93888 1.433223,-0.94948 6.449873,-5.60853 6.449873,-5.99011 0,-0.0789 -2.354084,-0.21154 -5.231298,-0.29472 -7.336487,-0.21206 -9.259897,-0.7416 -10.269577,-2.827321 -0.274828,-0.567719 -0.486911,-1.474078 -0.486911,-2.080864 0,-2.26237 1.954217,-7.57877 4.734437,-12.879913 3.089595,-5.891043 5.973423,-8.908379 9.338045,-9.770355 1.228457,-0.314716 1.516446,-0.318813 2.19371,-0.0312 0.970527,0.412148 2.847512,1.806367 6.180605,4.590942 1.418792,1.185305 2.68841,2.121189 2.821374,2.079744 0.381478,-0.118909 4.288167,-5.344079 4.732785,-6.330069 0.38353,-0.850515 0.381527,-0.909944 -0.04668,-1.385569 -1.271777,-1.41259 -11.307092,-5.339777 -15.936125,-6.236391 -6.306427,-1.221513 -10.28823,2.049104 -17.072211,14.022959 -3.270215,5.771991 -4.762993,8.196865 -5.453083,8.858014 l -0.662319,0.634542 v -0.778333 c 0,-2.762327 5.220212,-14.131918 9.319515,-20.297851 1.954767,-2.940247 5.130162,-6.284342 7.344625,-7.734823 3.128613,-2.049252 6.749599,-2.719435 10.682496,-1.977148 2.674947,0.504864 4.61802,1.212291 9.096112,3.311677 7.343122,3.442549 8.474477,3.474371 16.378003,0.460655 6.8451,-2.610123 10.425078,-3.629922 11.657182,-3.320685 0.944457,0.237044 1.205745,1.230182 1.048622,3.985753 -0.265275,4.652328 -2.465164,10.110734 -5.30214,13.155764 -1.210127,1.298874 -2.594474,1.820502 -4.838844,1.823295 -2.099958,0.0026 -4.271558,0.412814 -5.511319,1.041049 -3.439932,1.743145 -13.116486,12.240642 -15.33556,16.636603 -0.395006,0.782501 -1.090405,2.494172 -1.545332,3.803705 -2.182288,6.28187 -7.962515,15.04516 -12.357738,18.73532 -6.114045,5.13325 -14.50676,8.09063 -20.614071,7.26387 z"
       id="path307"
       transform="matrix(7.5,0,0,-7.5,0,1300)" />
    <path
       style="fill:#ffffff;stroke-width:0.235114"
       d="m 15.282443,126.03562 c -2.182678,-0.26946 -3.88511,-0.85356 -5.4661008,-1.8754 -2.8838831,-1.86395 -4.2278893,-4.75588 -3.985034,-8.57471 0.2292443,-3.60479 1.1520437,-5.78704 2.4471463,-5.78704 0.3053958,0 2.0591285,0.25632 3.8971845,0.56961 9.368654,1.59682 16.162246,0.70424 21.651429,-2.84467 1.45965,-0.94371 6.495069,-5.55912 6.495069,-5.95331 0,-0.0889 -2.354084,-0.23247 -5.231298,-0.319 -5.703464,-0.17153 -7.038731,-0.35063 -8.640458,-1.15891 -2.349302,-1.185541 -2.672916,-3.754719 -1.057753,-8.397535 1.059674,-3.046051 4.132346,-9.387021 5.696525,-11.755725 2.318337,-3.510762 4.57964,-5.468858 7.193095,-6.22861 1.049554,-0.305113 1.515986,-0.337345 2.072805,-0.143238 0.965345,0.336522 3.052534,1.848282 6.315175,4.574108 1.4871,1.242421 2.809619,2.226699 2.938932,2.187284 0.342761,-0.104474 3.970084,-4.942775 4.610029,-6.149083 0.543154,-1.023856 0.543509,-1.030394 0.08375,-1.540308 -0.638583,-0.708248 -5.035224,-2.788893 -8.626081,-4.082166 -4.580261,-1.649614 -7.279846,-2.308448 -9.598796,-2.342587 -1.886966,-0.02778 -2.122899,0.02595 -3.840079,0.874546 -3.507677,1.733419 -6.549224,5.540196 -11.675854,14.613413 -2.845367,5.035788 -4.103236,7.022433 -4.898427,7.73644 -0.498758,0.447837 -0.498817,0.447793 -0.498817,-0.384701 0,-2.435344 4.462149,-12.456892 8.329556,-18.707366 2.678302,-4.328651 6.278564,-8.187211 9.12376,-9.778335 1.870045,-1.045788 4.681271,-1.790722 6.742308,-1.786613 3.380777,0.0067 6.699837,1.036058 13.575521,4.210091 6.454848,2.979761 6.857841,2.949468 18.538489,-1.393532 3.697401,-1.374736 7.247252,-2.264234 8.141,-2.039917 0.83018,0.208362 1.146312,1.068975 1.146312,3.120633 0,4.79756 -2.793727,11.761025 -5.803583,14.465638 -1.106841,0.994593 -2.208134,1.290381 -5.552922,1.491422 -3.980084,0.239226 -5.304301,0.999465 -10.038914,5.763391 -6.753006,6.794819 -9.441841,10.525463 -11.171802,15.500399 -2.073202,5.962011 -6.563318,13.094651 -11.050967,17.554681 -5.790819,5.75518 -15.112614,9.41423 -21.8612,8.5811 z"
       id="path309"
       transform="matrix(7.5,0,0,-7.5,0,1300)" />
    <path
       style="fill:#ffffff;stroke-width:0.235114"
       d="m 95.456488,125.08162 c -8.288001,-0.40905 -14.96734,-1.87754 -19.939923,-4.38389 -5.046641,-2.54367 -9.295631,-7.34421 -11.006345,-12.43504 -1.092079,-3.24987 -1.432898,-5.64474 -1.556113,-10.934522 -0.125527,-5.389048 0.195616,-8.499542 1.25495,-12.155086 1.361866,-4.699513 3.379713,-6.689171 3.043076,-3.000564 -0.430396,4.715948 -0.41757,6.094608 0.07593,8.160651 1.381676,5.78446 4.726015,9.926371 10.259726,12.706511 8.935915,4.48942 24.932031,6.13058 41.720861,4.28047 12.58203,-1.38653 24.39862,-4.29464 35.21583,-8.666745 15.03785,-6.078006 21.12511,-10.387001 23.70835,-16.782471 0.86038,-2.130076 1.24418,-3.854224 1.76468,-7.927423 0.57021,-4.462162 1.12983,-6.70457 2.2297,-8.934351 0.97872,-1.984173 3.36961,-5.201565 5.66621,-7.624934 2.01281,-2.123916 2.22426,-2.068644 2.37812,0.621636 0.19484,3.406889 -1.14307,13.593933 -2.44742,18.634941 -1.44277,5.575983 -3.79987,10.855272 -6.61326,14.811995 -5.43841,7.648519 -16.21685,15.782242 -29.3225,22.127612 -17.21599,8.33548 -37.36607,12.44221 -56.431868,11.50121 z"
       id="path311"
       transform="matrix(7.5,0,0,-7.5,0,1300)" />
    <path
       style="fill:#ffffff;stroke-width:0.235114"
       d="m 50.310817,125.46382 c -1.031584,-0.51942 -2.565689,-1.64946 -4.09528,-3.01665 -1.345185,-1.20235 -2.756205,-2.4524 -3.1356,-2.77788 l -0.689807,-0.59177 3.697121,-4.81586 c 4.077388,-5.31119 6.873327,-8.69525 7.184098,-8.69525 0.111185,0 1.501609,0.97277 3.08983,2.16172 3.290144,2.463 6.254351,5.31185 6.83921,6.57305 1.098267,2.36832 0.116007,4.7219 -3.474917,8.3262 -2.749111,2.75936 -3.964084,3.45727 -6.236923,3.58266 -1.370238,0.0756 -1.698786,-0.002 -3.177732,-0.74622 z"
       id="path313"
       transform="matrix(7.5,0,0,-7.5,0,1300)" />
    <path
       style="fill:#ffffff;stroke-width:0.235114"
       d="m 97.288152,95.351864 c -1.746236,-0.813021 -3.690811,-2.181541 -6.919213,-4.869487 l -2.815792,-2.34441 5.634996,-5.804099 c 3.099247,-3.192254 5.998881,-6.153215 6.44363,-6.579913 l 0.808637,-0.775816 2.44544,2.048304 c 5.01912,4.204015 7.67643,5.917689 8.75608,5.646715 0.91412,-0.22943 3.42337,-2.301134 6.7301,-5.556555 3.34477,-3.292863 5.32783,-4.936451 5.95606,-4.936451 1.09014,0 9.12586,7.023708 10.02158,8.759469 0.31903,0.618231 0.2845,0.721048 -0.75116,2.23679 -1.52164,2.226987 -5.27937,6.367645 -7.54657,8.315588 -1.75873,1.511077 -1.98108,1.633667 -2.78243,1.534085 -1.12543,-0.139856 -4.34418,-1.989344 -8.07113,-4.637659 -1.6265,-1.155772 -3.05622,-2.101403 -3.17714,-2.101403 -0.12093,0 -1.56983,1.247669 -3.21979,2.772598 -1.64996,1.524928 -3.79344,3.368845 -4.76328,4.097593 -1.7329,1.302108 -4.479092,2.771173 -5.172522,2.767021 -0.19397,-0.0012 -0.903843,-0.258727 -1.577496,-0.57237 z"
       id="path315"
       transform="matrix(7.5,0,0,-7.5,0,1300)" />
    <path
       style="fill:#ffffff;stroke-width:0.235114"
       d="m 108.35653,76.329595 c -0.79307,-0.427505 -2.11558,-1.261172 -2.93893,-1.852593 -1.90256,-1.366642 -5.7517,-4.672352 -5.657796,-4.859021 0.165866,-0.329717 7.361866,-9.476871 8.940606,-11.364802 0.94782,-1.133447 1.86027,-2.060813 2.02767,-2.060813 0.46771,0 4.9715,3.438479 6.88675,5.257775 0.9397,0.892626 2.14069,2.270099 2.66887,3.061053 1.13908,1.705778 1.12921,2.303743 -0.0717,4.344072 -1.03377,1.75635 -5.83564,6.588427 -7.47458,7.521599 -1.66436,0.94765 -2.55297,0.938062 -4.38087,-0.04727 z"
       id="path317"
       transform="matrix(7.5,0,0,-7.5,0,1300)" />
    <path
       style="fill:#ffffff;stroke-width:0.235114"
       d="m 94.975805,125.06548 c -14.351377,-0.78282 -23.150176,-4.56152 -28.108135,-12.07121 -1.63663,-2.47896 -2.579031,-4.80353 -3.304649,-8.15142 -0.471251,-2.17427 -0.532313,-3.12627 -0.541726,-8.445904 -0.01166,-6.588732 0.201418,-8.303088 1.52596,-12.277494 1.410077,-4.231055 3.010659,-5.314532 2.702473,-1.829377 -0.408498,4.619558 -0.413171,5.588804 -0.03592,7.450619 1.008898,4.979119 3.937533,9.34314 8.024575,11.957586 10.592409,6.77588 33.332657,8.28706 56.272047,3.73949 9.20488,-1.8248 16.999,-4.22603 25.78117,-7.942732 9.38417,-3.971469 14.10525,-6.789008 17.56328,-10.481773 3.05433,-3.261659 4.2407,-6.268418 5.11049,-12.952197 0.59416,-4.565717 1.15231,-6.801205 2.26005,-9.051908 0.99001,-2.011515 3.30456,-5.130513 5.62254,-7.576742 2.0932,-2.209006 2.31492,-2.148711 2.44266,0.664262 0.22305,4.911588 -1.61009,16.434124 -3.52934,22.184286 -2.37948,7.129038 -5.56866,12.136996 -11.16137,17.526667 -3.0231,2.913347 -5.44147,4.831457 -9.87857,7.835127 -17.17884,11.62913 -37.58184,18.31154 -59.33203,19.43249 -5.0322,0.25934 -6.502914,0.25809 -11.413506,-0.01 z"
       id="path321"
       transform="matrix(7.5,0,0,-7.5,0,1300)" />
    <path
       style="fill:#ffffff;stroke-width:0.235114"
       d="m 97.102289,95.24724 c -0.775878,-0.373508 -2.061061,-1.140486 -2.855962,-1.704395 -1.671508,-1.18578 -6.642229,-5.200789 -6.654321,-5.374907 -0.0045,-0.06466 2.87652,-3.072362 6.402245,-6.683789 l 6.410409,-6.566232 3.04217,2.535598 c 3.98588,3.322157 6.95245,5.306789 7.93244,5.306789 0.66505,0 2.95489,-1.828912 6.13473,-4.89986 3.96144,-3.825778 6.14941,-5.680292 6.70164,-5.680292 0.54098,0 1.80622,0.869959 4.62711,3.181523 3.61124,2.959221 5.91832,5.589899 5.64833,6.44057 -0.41846,1.318466 -5.69523,7.363806 -8.58726,9.838022 -1.6222,1.387831 -1.83362,1.499283 -2.64099,1.392198 -1.10992,-0.147214 -3.91804,-1.749706 -7.77621,-4.437603 -1.6561,-1.153764 -3.14097,-2.147593 -3.29972,-2.208508 -0.15874,-0.06091 -1.81909,1.27896 -3.68967,2.9775 -1.87058,1.69854 -4.04437,3.549125 -4.83066,4.112411 -1.63656,1.172418 -4.103307,2.450538 -4.728957,2.450266 -0.23355,-1.01e-4 -1.059446,-0.305783 -1.835324,-0.679291 z"
       id="path323"
       transform="matrix(7.5,0,0,-7.5,0,1300)" />
    <path
       style="fill:#ffffff;stroke-width:0.235114"
       d="m 108.34811,76.325096 c -1.88966,-1.018576 -3.41869,-2.118873 -6.3622,-4.578272 -2.085202,-1.742261 -2.363689,-2.058009 -2.094781,-2.375057 0.170571,-0.201114 1.830061,-2.322989 3.687741,-4.715279 4.30249,-5.540662 6.78228,-8.464122 7.1796,-8.464122 0.46425,0 4.89932,3.402416 6.85894,5.261924 0.93828,0.890344 2.13811,2.26595 2.66629,3.056904 1.13908,1.705778 1.12921,2.303743 -0.0717,4.344072 -1.03377,1.75635 -5.83564,6.588427 -7.47458,7.521599 -1.66635,0.948783 -2.55245,0.938332 -4.38929,-0.05177 z"
       id="path325"
       transform="matrix(7.5,0,0,-7.5,0,1300)" />
    <path
       style="fill:#ffffff;stroke-width:0.235114"
       d="m 156.54384,75.960787 c -5.49362,-2.867887 -7.36572,-4.412505 -7.36139,-6.073679 0.003,-1.141575 0.85714,-2.952154 2.51275,-5.326277 2.68918,-3.856244 6.63567,-8.368465 7.31924,-8.368465 0.96883,0 5.04505,2.79296 7.26801,4.979914 4.31563,4.245742 3.54584,7.141259 -3.73356,14.043593 -1.37581,1.304552 -2.59253,2.369832 -2.70381,2.36729 -0.11129,-0.0025 -1.59684,-0.732612 -3.30124,-1.622376 z"
       id="path327"
       transform="matrix(7.5,0,0,-7.5,0,1300)" />
    <path
       style="fill:#ffffff;stroke-width:0.235114"
       d="m 174.57252,124.75851 c -2.44439,-0.71477 -5.21895,-2.64323 -6.01347,-4.17968 -0.43719,-0.84542 -0.4257,-2.16347 0.0265,-3.03789 0.50849,-0.9833 1.96139,-1.96382 4.17468,-2.81736 5.97122,-2.30274 13.40707,-7.02926 16.88566,-10.73319 1.39672,-1.4872 1.59316,-1.81889 1.938,-3.27229 0.83371,-3.51391 1.4146,-9.039825 1.91245,-18.19291 0.57673,-10.603305 0.96722,-13.073448 2.56457,-16.222901 2.06404,-4.069627 7.72514,-11.774779 8.25893,-11.24099 0.22319,0.223187 0.13718,10.746919 -0.11781,14.415036 -1.66606,23.966931 -4.4161,35.798545 -10.51974,45.259545 -1.83237,2.84027 -5.70285,6.59858 -8.29791,8.05741 -1.09728,0.61685 -2.68276,1.34295 -3.52329,1.61356 -1.91241,0.6157 -5.75205,0.80096 -7.28855,0.35166 z"
       id="path329"
       transform="matrix(7.5,0,0,-7.5,0,1300)" />
    <path
       style="fill:#ffffff;stroke-width:0.235114"
       d="m 199.43384,124.69567 c -0.57992,-0.24413 -0.9338,-0.57158 -1.02941,-0.95252 -0.5298,-2.11086 1.58186,-8.39026 3.67573,-10.9305 0.38457,-0.46655 1.78524,-1.51239 3.11258,-2.32409 5.37531,-3.2871 9.812,-7.07294 10.90358,-9.30406 0.5426,-1.10903 0.60894,-1.483566 0.50934,-2.87562 -0.2215,-3.095748 -2.52697,-6.128264 -7.05781,-9.283529 -1.25967,-0.877234 -2.44994,-1.822867 -2.64504,-2.101407 -0.84781,-1.210422 -0.37315,-3.041852 2.57201,-9.923945 2.59563,-6.0653 4.24057,-8.816794 5.27099,-8.816794 0.86524,0 5.68198,3.713584 7.63669,5.887683 1.55437,1.728833 1.80509,2.684501 2.0891,7.962912 0.34459,6.404253 -0.0371,14.301712 -0.84324,17.447584 -0.93473,3.647656 -2.88711,7.484966 -6.92398,13.608696 -2.69073,4.08171 -4.90723,6.36458 -8.45375,8.70686 -3.86506,2.55267 -7.10696,3.61853 -8.81679,2.89873 z"
       id="path331"
       transform="matrix(7.5,0,0,-7.5,0,1300)" />
    <path
       style="fill:#ffffff;stroke-width:0.235114"
       d="m 244.73963,104.64746 c -2.19863,-0.54712 -4.92088,-2.87398 -5.96765,-5.100907 -2.14005,-4.55275 -1.25577,-11.195494 2.6258,-19.72518 1.4267,-3.135158 3.07877,-6.007691 3.17769,-5.525191 0.0967,0.47149 -0.7977,3.387416 -2.27155,7.406107 -2.18728,5.963971 -2.64161,8.97011 -1.67684,11.095126 1.98418,4.370389 7.37948,5.501586 13.00353,2.726362 1.35704,-0.669639 2.24199,-1.379663 4.34878,-3.489169 1.45477,-1.456648 2.64503,-2.760623 2.64503,-2.897723 0,-0.1371 -0.78052,-0.775967 -1.7345,-1.419706 -2.97101,-2.004816 -4.39086,-4.25512 -4.04592,-6.412302 0.52532,-3.285177 4.77172,-10.065914 8.81127,-14.070011 1.59095,-1.57699 2.49006,-2.246307 4.2014,-3.127614 1.19751,-0.616693 2.28197,-1.056558 2.40992,-0.977479 0.12796,0.07908 0.23264,0.747784 0.23264,1.486012 0,2.274598 -1.35924,3.669291 -6.11181,6.271237 -2.61326,1.430709 -4.4883,3.051373 -5.17752,4.475104 -0.73807,1.524655 -0.52299,2.306303 1.06657,3.876115 1.65422,1.633677 2.22951,3.077068 2.22722,5.588135 -0.003,3.334222 -1.40771,7.644364 -3.67886,11.288284 -1.37592,2.207565 -4.13215,5.13787 -6.01579,6.39572 -2.2365,1.49348 -6.31509,2.57364 -8.06941,2.13708 z"
       id="path402"
       transform="matrix(7.5,0,0,-7.5,0,1300)" />
    <path
       style="fill:#ffffff;stroke-width:0.235114"
       d="m 248.16336,112.8628 c 0,-0.41056 1.59468,-1.83337 4.4053,-3.93051 3.07761,-2.29634 6.36327,-5.4885 7.61702,-7.40024 3.00457,-4.581458 3.12298,-4.705355 3.40874,-3.566788 0.0984,0.392137 0.0108,1.252801 -0.21524,2.114708 -1.47448,5.62179 -6.24988,10.22361 -13.02991,12.55628 -1.45068,0.49911 -2.18591,0.57531 -2.18591,0.22655 z"
       id="path404"
       transform="matrix(7.5,0,0,-7.5,0,1300)" />
    <path
       style="fill:#ffffff;stroke-width:0.235114"
       d="m 266.11077,92.76864 c 0.0812,-0.961064 0.35904,-2.73324 0.61734,-3.938168 0.73513,-3.429333 1.15821,-6.389408 1.40525,-9.832 0.24928,-3.473786 1.02392,-6.669624 2.03738,-8.405343 0.94514,-1.618725 1.12573,-1.406222 1.04899,1.234351 -0.17817,6.130445 -2.35424,17.691291 -3.98656,21.179491 -0.96545,2.063106 -1.31075,1.989783 -1.1224,-0.238331 z"
       id="path406"
       transform="matrix(7.5,0,0,-7.5,0,1300)" />
    <path
       style="fill:#ffffff;stroke-width:0.235114"
       d="m 277.95676,70.8689 c -1.18514,-0.741309 -1.34455,-0.93111 -1.34455,-1.600854 0,-1.415171 2.63072,-5.081787 3.64608,-5.081787 0.56772,0 2.49481,1.902821 2.94925,2.912109 0.53641,1.191367 0.30453,1.856748 -1.19048,3.416009 -1.44118,1.503122 -2.12813,1.563103 -4.0603,0.354523 z"
       id="path408"
       transform="matrix(7.5,0,0,-7.5,0,1300)" />
    <path
       style="fill:#ffffff;stroke-width:0.235114"
       d="m 254.27633,116.55644 c 0.0647,-0.065 0.85817,-0.67533 1.76336,-1.35621 2.5424,-1.91235 6.3136,-5.52059 10.14244,-9.70415 4.56321,-4.98597 5.59856,-5.983317 7.84651,-7.558493 1.40377,-0.983646 1.87823,-1.45012 1.87823,-1.846617 0,-0.343914 -0.54733,-1.065652 -1.55611,-2.051962 -2.20911,-2.159926 -2.91107,-3.320477 -2.91107,-4.812922 0,-2.028765 0.81002,-3.255 4.79207,-7.254375 1.95497,-1.963483 3.88757,-3.997657 4.29466,-4.520386 1.72055,-2.209289 14.89495,-11.185125 14.89495,-10.148063 0,0.184855 -0.2116,0.951135 -0.47023,1.702844 -0.56077,1.629896 -0.55213,1.528244 -0.12976,1.528244 0.18725,0 0.97049,-0.524315 1.74053,-1.165144 1.40359,-1.168083 2.82025,-2.123935 3.1503,-2.12558 0.33378,-0.0017 0.17529,0.946947 -0.344,2.058936 -0.6828,1.462094 -3.48915,4.234014 -6.29802,6.220752 -1.22846,0.868891 -4.13798,2.709292 -6.46561,4.089779 -8.05773,4.778925 -8.64725,5.150362 -9.78742,6.166709 -0.97749,0.871338 -1.14541,1.147704 -1.14541,1.885117 0,0.54033 0.22617,1.196925 0.60362,1.752395 1.7743,2.611112 2.15966,4.741055 1.26737,7.004819 -0.92287,2.341341 -2.32783,4.123527 -7.98396,10.127617 -1.74573,1.85312 -3.94413,4.29169 -4.88534,5.41906 -1.895,2.26982 -2.98498,3.02492 -5.52828,3.82983 -1.52856,0.48377 -5.15797,1.04866 -4.86883,0.7578 z"
       id="path410"
       transform="matrix(7.5,0,0,-7.5,0,1300)" />
    <path
       style="fill:#ffffff;stroke-width:0.235114"
       d="m 291.99367,85.961512 c -1.24462,-0.57955 -2.21505,-1.567435 -2.21505,-2.254904 0,-0.65812 1.33958,-3.135451 2.13585,-3.949888 1.04723,-1.071132 1.82829,-1.014893 3.17753,0.228794 1.17023,1.078676 1.74006,1.995787 1.74006,2.800529 0,0.768149 -1.79952,3.020735 -2.72063,3.405597 -0.96183,0.401881 -0.69919,0.430422 -2.11776,-0.230128 z"
       id="path412"
       transform="matrix(7.5,0,0,-7.5,0,1300)" />
    <path
       style="fill:#ffffff;stroke-width:0.235114"
       d="m 261.90811,122.24426 c -0.19216,-0.31093 1.34361,-1.85453 3.72753,-3.74655 0.7332,-0.58191 2.18953,-2.02727 3.23629,-3.21192 1.77274,-2.00625 2.9871,-3.53698 7.33489,-9.24577 3.36596,-4.41961 7.41118,-7.94931 10.51028,-9.170861 0.70324,-0.27719 2.12019,-0.599966 3.14877,-0.717279 2.18018,-0.248654 3.3871,-0.907812 3.99051,-2.17941 0.53004,-1.116982 0.49013,-1.664276 -0.17801,-2.441039 -0.60296,-0.700981 -0.64043,-0.705154 -4.36998,-0.486571 -0.92941,0.05447 -1.06684,4e-5 -1.13063,-0.447803 -0.044,-0.308969 0.20336,-0.818404 0.62791,-1.29313 l 0.70052,-0.783317 2.42858,0.01663 c 3.77024,0.02582 7.71866,0.862194 7.71866,1.634999 0,1.022148 -4.94644,7.167874 -8.65111,10.748611 l -2.36958,2.29031 -1.36676,-0.14005 c -3.2873,-0.33685 -6.89865,2.26448 -12.76421,9.19436 -1.64258,1.94063 -3.98022,4.47231 -5.19475,5.62595 -2.04953,1.94678 -5.33967,4.3639 -5.95017,4.37133 -0.14505,0.002 -0.48984,0.0639 -0.7662,0.13804 -0.28277,0.0759 -0.5812,0.007 -0.68254,-0.15653 z"
       id="path414"
       transform="matrix(7.5,0,0,-7.5,0,1300)" />
    <path
       style="fill:#ffffff;stroke-width:0.235114"
       d="m 281.62939,116.63214 c -1.39506,-0.85065 -1.31032,-2.07156 0.29515,-4.25243 0.91186,-1.23868 2.20138,-2.34255 2.73967,-2.34524 0.42007,-0.002 2.16872,1.84436 2.55974,2.70293 0.52585,1.15461 0.54559,1.81501 0.0811,2.71319 -0.78501,1.51803 -4.01955,2.19139 -5.67569,1.18155 z"
       id="path416"
       transform="matrix(7.5,0,0,-7.5,0,1300)" />
  </g>
</svg>
